<svg xmlns="http://www.w3.org/2000/svg" xmlns:xlink="http://www.w3.org/1999/xlink" width="500" zoomAndPan="magnify" viewBox="0 0 375 374.999991" height="500" preserveAspectRatio="xMidYMid meet" version="1.0"><defs><g/></defs><rect x="-37.5" width="450" fill="#ffffff" y="-37.499999" height="449.999989" fill-opacity="1"/><rect x="-37.5" width="450" fill="#ffffff" y="-37.499999" height="449.999989" fill-opacity="1"/><rect x="-37.5" width="450" fill="#ffe600" y="-37.499999" height="449.999989" fill-opacity="1"/><g fill="#1e1e1e" fill-opacity="1"><g transform="translate(22.351198, 201.147028)"><g/></g></g><g fill="#1e1e1e" fill-opacity="1"><g transform="translate(39.719594, 198.885032)"><g><path d="M 27.453125 -52.53125 L 27.703125 -52.5 C 28.847656 -52 29.863281 -51.40625 30.75 -50.71875 C 31.644531 -50.039062 32.476562 -49.304688 33.25 -48.515625 C 34.03125 -47.734375 34.679688 -46.851562 35.203125 -45.875 C 37.316406 -42.175781 36.476562 -37.609375 32.6875 -32.171875 C 31.082031 -29.890625 29.207031 -27.875 27.0625 -26.125 C 27.695312 -25.769531 28.289062 -25.53125 28.84375 -25.40625 C 29.40625 -25.289062 30.210938 -25.03125 31.265625 -24.625 C 32.316406 -24.226562 33.085938 -23.3125 33.578125 -21.875 C 34.066406 -20.4375 34.207031 -18.773438 34 -16.890625 C 33.789062 -15.003906 33.226562 -13.015625 32.3125 -10.921875 C 31.394531 -8.835938 30.097656 -6.90625 28.421875 -5.125 C 24.617188 -1.039062 19.878906 1.085938 14.203125 1.265625 C 13.390625 1.367188 12.867188 1.367188 12.640625 1.265625 C 12.410156 1.171875 12.222656 1.09375 12.078125 1.03125 C 11.941406 0.96875 11.660156 0.9375 11.234375 0.9375 C 10.273438 1.925781 9.128906 2.613281 7.796875 3 C 6.460938 3.394531 5.160156 3.457031 3.890625 3.1875 C 2.617188 2.925781 1.5 2.335938 0.53125 1.421875 C -0.4375 0.503906 -1.023438 -0.785156 -1.234375 -2.453125 C -1.242188 -3.566406 -1.140625 -4.460938 -0.921875 -5.140625 C -1.109375 -5.503906 -1.238281 -5.957031 -1.3125 -6.5 C -0.863281 -14.394531 -0.265625 -20.472656 0.484375 -24.734375 C 2.015625 -33.203125 4.019531 -39.703125 6.5 -44.234375 C 8.519531 -48.035156 11.65625 -50.734375 15.90625 -52.328125 C 20 -53.847656 23.847656 -53.914062 27.453125 -52.53125 Z M 13.390625 -5.375 C 13.890625 -5.570312 14.320312 -5.660156 14.6875 -5.640625 C 15.0625 -5.628906 15.492188 -5.695312 15.984375 -5.84375 C 17.210938 -6.132812 18.773438 -7.117188 20.671875 -8.796875 C 21.804688 -10.285156 22.335938 -11.671875 22.265625 -12.953125 C 22.191406 -14.242188 21.894531 -15.039062 21.375 -15.34375 C 20.863281 -15.644531 20.210938 -15.742188 19.421875 -15.640625 C 18.640625 -15.535156 17.78125 -15.300781 16.84375 -14.9375 C 15.914062 -14.582031 15.015625 -14.328125 14.140625 -14.171875 L 14.15625 -14.0625 C 14.050781 -13.164062 13.929688 -12.382812 13.796875 -11.71875 C 13.671875 -11.0625 13.554688 -10.425781 13.453125 -9.8125 C 13.253906 -8.351562 13.148438 -6.863281 13.140625 -5.34375 Z M 20.9375 -40.125 C 19.632812 -40.125 18.378906 -38.945312 17.171875 -36.59375 C 16.421875 -35.101562 15.972656 -32.941406 15.828125 -30.109375 C 16.660156 -30.609375 17.492188 -31.050781 18.328125 -31.4375 C 19.160156 -31.832031 19.941406 -32.25 20.671875 -32.6875 C 22.441406 -33.738281 23.660156 -34.890625 24.328125 -36.140625 C 25.117188 -37.390625 25.289062 -38.367188 24.84375 -39.078125 C 24.25 -39.691406 23.335938 -40.203125 22.109375 -40.609375 C 21.816406 -40.253906 21.425781 -40.09375 20.9375 -40.125 Z M 19.953125 -40.25 L 20.140625 -40.28125 Z M 19.953125 -40.25 "/></g></g></g><g fill="#1e1e1e" fill-opacity="1"><g transform="translate(74.520461, 194.352694)"><g><path d="M 15.890625 -49.09375 L 15.90625 -48.953125 C 15.90625 -48.910156 15.914062 -48.890625 15.9375 -48.890625 C 15.957031 -48.890625 15.972656 -48.867188 15.984375 -48.828125 L 16 -48.703125 L 16.0625 -48.71875 L 16.5625 -47.75 C 17.164062 -46.5625 16.5625 -42.582031 14.75 -35.8125 C 12.832031 -28.601562 12.234375 -23.097656 12.953125 -19.296875 C 13.765625 -16.617188 15.753906 -19.101562 18.921875 -26.75 C 21.429688 -32.707031 23.769531 -39.179688 25.9375 -46.171875 C 26.207031 -47.117188 26.488281 -48.097656 26.78125 -49.109375 C 27.082031 -50.117188 27.507812 -50.984375 28.0625 -51.703125 C 29.269531 -53.421875 30.925781 -54.050781 33.03125 -53.59375 C 33.59375 -54.476562 34.316406 -55.128906 35.203125 -55.546875 C 36.085938 -55.972656 36.953125 -56.15625 37.796875 -56.09375 C 38.640625 -56.03125 39.398438 -55.726562 40.078125 -55.1875 C 40.753906 -54.644531 41.179688 -53.863281 41.359375 -52.84375 C 41.597656 -52.007812 41.425781 -49.929688 40.84375 -46.609375 C 40.257812 -43.296875 39.710938 -40.265625 39.203125 -37.515625 C 38.691406 -34.765625 38.191406 -31.769531 37.703125 -28.53125 C 36.492188 -20.882812 35.675781 -13.726562 35.25 -7.0625 C 35.382812 -5.695312 34.945312 -4.492188 33.9375 -3.453125 C 32.925781 -2.410156 31.742188 -1.660156 30.390625 -1.203125 C 29.046875 -0.742188 27.726562 -0.625 26.4375 -0.84375 C 24.894531 -1.070312 23.972656 -2.035156 23.671875 -3.734375 C 23.609375 -4.203125 23.523438 -4.664062 23.421875 -5.125 C 23.691406 -3.6875 22.8125 -2.316406 20.78125 -1.015625 C 20.21875 -0.640625 19.703125 -0.289062 19.234375 0.03125 C 16.359375 1.3125 13.203125 1.53125 9.765625 0.6875 C 8.148438 0.238281 6.664062 -0.445312 5.3125 -1.375 C 3.957031 -2.300781 2.941406 -3.484375 2.265625 -4.921875 C 0.171875 -9.484375 -0.359375 -15.769531 0.671875 -23.78125 C 1.078125 -27.21875 1.691406 -30.59375 2.515625 -33.90625 C 3.335938 -37.21875 3.945312 -39.609375 4.34375 -41.078125 C 4.738281 -42.554688 5.03125 -43.578125 5.21875 -44.140625 C 5.40625 -44.710938 5.617188 -45.273438 5.859375 -45.828125 C 6.390625 -47.367188 6.878906 -48.425781 7.328125 -49 L 7.984375 -49.8125 C 8.054688 -49.90625 8.132812 -49.96875 8.21875 -50 C 8.3125 -50.03125 8.414062 -50.09375 8.53125 -50.1875 C 8.84375 -50.457031 9.179688 -50.65625 9.546875 -50.78125 L 10.421875 -51.109375 L 10.8125 -51.15625 C 12.019531 -51.476562 13.117188 -51.359375 14.109375 -50.796875 C 14.109375 -50.753906 14.148438 -50.738281 14.234375 -50.75 L 14.8125 -50.359375 L 15.03125 -50.203125 L 15.25 -49.953125 C 15.25 -49.921875 15.257812 -49.90625 15.28125 -49.90625 C 15.300781 -49.914062 15.316406 -49.898438 15.328125 -49.859375 L 15.390625 -49.796875 L 15.40625 -49.671875 C 15.445312 -49.679688 15.472656 -49.664062 15.484375 -49.625 L 15.484375 -49.5625 C 15.535156 -49.507812 15.582031 -49.488281 15.625 -49.5 L 15.640625 -49.4375 C 15.640625 -49.394531 15.648438 -49.375 15.671875 -49.375 C 15.691406 -49.375 15.703125 -49.363281 15.703125 -49.34375 C 15.710938 -49.320312 15.738281 -49.296875 15.78125 -49.265625 L 15.796875 -49.203125 C 15.796875 -49.160156 15.828125 -49.125 15.890625 -49.09375 Z M 23.140625 -6.78125 L 23.125 -6.96875 C 23.082031 -6.914062 23.082031 -6.738281 23.125 -6.4375 C 23.101562 -6.570312 23.113281 -6.664062 23.15625 -6.71875 Z M 23.140625 -6.78125 "/></g></g></g><g fill="#1e1e1e" fill-opacity="1"><g transform="translate(115.706842, 188.988731)"><g><path d="M 19.0625 -51.5 C 25.03125 -53.539062 29.898438 -53.394531 33.671875 -51.0625 C 35.460938 -49.957031 36.785156 -48.179688 37.640625 -45.734375 C 38.503906 -43.296875 38.585938 -40.453125 37.890625 -37.203125 C 37.609375 -35.691406 36.941406 -34.5 35.890625 -33.625 C 34.835938 -32.757812 33.707031 -32.191406 32.5 -31.921875 C 31.289062 -31.648438 30.171875 -31.65625 29.140625 -31.9375 C 28.109375 -32.226562 27.503906 -32.75 27.328125 -33.5 L 26.578125 -34.6875 C 25.359375 -36.09375 23.566406 -36.054688 21.203125 -34.578125 C 19.160156 -33.328125 17.21875 -31.347656 15.375 -28.640625 C 13.40625 -25.734375 12.210938 -23.191406 11.796875 -21.015625 C 11.335938 -18.628906 11.15625 -17.070312 11.25 -16.34375 C 11.375 -14.707031 12.132812 -13.328125 13.53125 -12.203125 C 15.476562 -11.285156 17.335938 -11 19.109375 -11.34375 C 20.878906 -11.6875 22.414062 -12.300781 23.71875 -13.1875 C 25.03125 -14.070312 26.078125 -15.019531 26.859375 -16.03125 C 27.648438 -17.050781 28.019531 -17.75 27.96875 -18.125 C 28.0625 -18.394531 28.15625 -18.664062 28.25 -18.9375 C 28.351562 -19.207031 28.425781 -19.472656 28.46875 -19.734375 C 28.300781 -19.710938 28.34375 -19.726562 28.59375 -19.78125 C 28.84375 -19.84375 28.90625 -19.851562 28.78125 -19.8125 C 28.65625 -19.769531 28.722656 -19.753906 28.984375 -19.765625 L 29.390625 -19.6875 C 27.554688 -17.53125 25.582031 -16.875 23.46875 -17.71875 C 22.644531 -18.101562 21.898438 -18.519531 21.234375 -18.96875 C 20.566406 -19.425781 19.976562 -19.597656 19.46875 -19.484375 C 18.46875 -19.878906 18.128906 -20.847656 18.453125 -22.390625 C 18.578125 -23.023438 18.894531 -23.644531 19.40625 -24.25 C 19.914062 -24.851562 20.601562 -25.320312 21.46875 -25.65625 C 25.476562 -28.03125 29.359375 -28.96875 33.109375 -28.46875 C 34.773438 -28.257812 36.003906 -27.539062 36.796875 -26.3125 C 37.585938 -25.09375 38.039062 -23.664062 38.15625 -22.03125 C 38.28125 -20.40625 38.144531 -18.722656 37.75 -16.984375 C 37.351562 -15.253906 36.859375 -13.84375 36.265625 -12.75 C 35.671875 -11.65625 34.8125 -10.335938 33.6875 -8.796875 C 32.570312 -7.265625 31.117188 -5.738281 29.328125 -4.21875 C 24.921875 -0.476562 19.957031 1.6875 14.4375 2.28125 C 6.46875 3.175781 1.347656 0.53125 -0.921875 -5.65625 C -1.671875 -7.644531 -2.191406 -9.914062 -2.484375 -12.46875 C -3.003906 -19.925781 -1.6875 -27.128906 1.46875 -34.078125 C 2.976562 -37.390625 5.164062 -40.75 8.03125 -44.15625 C 9.820312 -46.257812 11.9375 -47.960938 14.375 -49.265625 C 15.664062 -49.992188 17.226562 -50.738281 19.0625 -51.5 Z M 19.0625 -51.5 "/></g></g></g><g fill="#1e1e1e" fill-opacity="1"><g transform="translate(153.955887, 184.007316)"><g/></g></g><g fill="#1e1e1e" fill-opacity="1"><g transform="translate(171.324287, 181.745319)"><g><path d="M 19.0625 -51.5 C 25.03125 -53.539062 29.898438 -53.394531 33.671875 -51.0625 C 35.460938 -49.957031 36.785156 -48.179688 37.640625 -45.734375 C 38.503906 -43.296875 38.585938 -40.453125 37.890625 -37.203125 C 37.609375 -35.691406 36.941406 -34.5 35.890625 -33.625 C 34.835938 -32.757812 33.707031 -32.191406 32.5 -31.921875 C 31.289062 -31.648438 30.171875 -31.65625 29.140625 -31.9375 C 28.109375 -32.226562 27.503906 -32.75 27.328125 -33.5 L 26.578125 -34.6875 C 25.359375 -36.09375 23.566406 -36.054688 21.203125 -34.578125 C 19.160156 -33.328125 17.21875 -31.347656 15.375 -28.640625 C 13.40625 -25.734375 12.210938 -23.191406 11.796875 -21.015625 C 11.335938 -18.628906 11.15625 -17.070312 11.25 -16.34375 C 11.375 -14.707031 12.132812 -13.328125 13.53125 -12.203125 C 15.476562 -11.285156 17.335938 -11 19.109375 -11.34375 C 20.878906 -11.6875 22.414062 -12.300781 23.71875 -13.1875 C 25.03125 -14.070312 26.078125 -15.019531 26.859375 -16.03125 C 27.648438 -17.050781 28.019531 -17.75 27.96875 -18.125 C 28.0625 -18.394531 28.15625 -18.664062 28.25 -18.9375 C 28.351562 -19.207031 28.425781 -19.472656 28.46875 -19.734375 C 28.300781 -19.710938 28.34375 -19.726562 28.59375 -19.78125 C 28.84375 -19.84375 28.90625 -19.851562 28.78125 -19.8125 C 28.65625 -19.769531 28.722656 -19.753906 28.984375 -19.765625 L 29.390625 -19.6875 C 27.554688 -17.53125 25.582031 -16.875 23.46875 -17.71875 C 22.644531 -18.101562 21.898438 -18.519531 21.234375 -18.96875 C 20.566406 -19.425781 19.976562 -19.597656 19.46875 -19.484375 C 18.46875 -19.878906 18.128906 -20.847656 18.453125 -22.390625 C 18.578125 -23.023438 18.894531 -23.644531 19.40625 -24.25 C 19.914062 -24.851562 20.601562 -25.320312 21.46875 -25.65625 C 25.476562 -28.03125 29.359375 -28.96875 33.109375 -28.46875 C 34.773438 -28.257812 36.003906 -27.539062 36.796875 -26.3125 C 37.585938 -25.09375 38.039062 -23.664062 38.15625 -22.03125 C 38.28125 -20.40625 38.144531 -18.722656 37.75 -16.984375 C 37.351562 -15.253906 36.859375 -13.84375 36.265625 -12.75 C 35.671875 -11.65625 34.8125 -10.335938 33.6875 -8.796875 C 32.570312 -7.265625 31.117188 -5.738281 29.328125 -4.21875 C 24.921875 -0.476562 19.957031 1.6875 14.4375 2.28125 C 6.46875 3.175781 1.347656 0.53125 -0.921875 -5.65625 C -1.671875 -7.644531 -2.191406 -9.914062 -2.484375 -12.46875 C -3.003906 -19.925781 -1.6875 -27.128906 1.46875 -34.078125 C 2.976562 -37.390625 5.164062 -40.75 8.03125 -44.15625 C 9.820312 -46.257812 11.9375 -47.960938 14.375 -49.265625 C 15.664062 -49.992188 17.226562 -50.738281 19.0625 -51.5 Z M 19.0625 -51.5 "/></g></g></g><g fill="#1e1e1e" fill-opacity="1"><g transform="translate(209.573326, 176.763905)"><g><path d="M 15.890625 -49.09375 L 15.90625 -48.953125 C 15.90625 -48.910156 15.914062 -48.890625 15.9375 -48.890625 C 15.957031 -48.890625 15.972656 -48.867188 15.984375 -48.828125 L 16 -48.703125 L 16.0625 -48.71875 L 16.5625 -47.75 C 17.164062 -46.5625 16.5625 -42.582031 14.75 -35.8125 C 12.832031 -28.601562 12.234375 -23.097656 12.953125 -19.296875 C 13.765625 -16.617188 15.753906 -19.101562 18.921875 -26.75 C 21.429688 -32.707031 23.769531 -39.179688 25.9375 -46.171875 C 26.207031 -47.117188 26.488281 -48.097656 26.78125 -49.109375 C 27.082031 -50.117188 27.507812 -50.984375 28.0625 -51.703125 C 29.269531 -53.421875 30.925781 -54.050781 33.03125 -53.59375 C 33.59375 -54.476562 34.316406 -55.128906 35.203125 -55.546875 C 36.085938 -55.972656 36.953125 -56.15625 37.796875 -56.09375 C 38.640625 -56.03125 39.398438 -55.726562 40.078125 -55.1875 C 40.753906 -54.644531 41.179688 -53.863281 41.359375 -52.84375 C 41.597656 -52.007812 41.425781 -49.929688 40.84375 -46.609375 C 40.257812 -43.296875 39.710938 -40.265625 39.203125 -37.515625 C 38.691406 -34.765625 38.191406 -31.769531 37.703125 -28.53125 C 36.492188 -20.882812 35.675781 -13.726562 35.25 -7.0625 C 35.382812 -5.695312 34.945312 -4.492188 33.9375 -3.453125 C 32.925781 -2.410156 31.742188 -1.660156 30.390625 -1.203125 C 29.046875 -0.742188 27.726562 -0.625 26.4375 -0.84375 C 24.894531 -1.070312 23.972656 -2.035156 23.671875 -3.734375 C 23.609375 -4.203125 23.523438 -4.664062 23.421875 -5.125 C 23.691406 -3.6875 22.8125 -2.316406 20.78125 -1.015625 C 20.21875 -0.640625 19.703125 -0.289062 19.234375 0.03125 C 16.359375 1.3125 13.203125 1.53125 9.765625 0.6875 C 8.148438 0.238281 6.664062 -0.445312 5.3125 -1.375 C 3.957031 -2.300781 2.941406 -3.484375 2.265625 -4.921875 C 0.171875 -9.484375 -0.359375 -15.769531 0.671875 -23.78125 C 1.078125 -27.21875 1.691406 -30.59375 2.515625 -33.90625 C 3.335938 -37.21875 3.945312 -39.609375 4.34375 -41.078125 C 4.738281 -42.554688 5.03125 -43.578125 5.21875 -44.140625 C 5.40625 -44.710938 5.617188 -45.273438 5.859375 -45.828125 C 6.390625 -47.367188 6.878906 -48.425781 7.328125 -49 L 7.984375 -49.8125 C 8.054688 -49.90625 8.132812 -49.96875 8.21875 -50 C 8.3125 -50.03125 8.414062 -50.09375 8.53125 -50.1875 C 8.84375 -50.457031 9.179688 -50.65625 9.546875 -50.78125 L 10.421875 -51.109375 L 10.8125 -51.15625 C 12.019531 -51.476562 13.117188 -51.359375 14.109375 -50.796875 C 14.109375 -50.753906 14.148438 -50.738281 14.234375 -50.75 L 14.8125 -50.359375 L 15.03125 -50.203125 L 15.25 -49.953125 C 15.25 -49.921875 15.257812 -49.90625 15.28125 -49.90625 C 15.300781 -49.914062 15.316406 -49.898438 15.328125 -49.859375 L 15.390625 -49.796875 L 15.40625 -49.671875 C 15.445312 -49.679688 15.472656 -49.664062 15.484375 -49.625 L 15.484375 -49.5625 C 15.535156 -49.507812 15.582031 -49.488281 15.625 -49.5 L 15.640625 -49.4375 C 15.640625 -49.394531 15.648438 -49.375 15.671875 -49.375 C 15.691406 -49.375 15.703125 -49.363281 15.703125 -49.34375 C 15.710938 -49.320312 15.738281 -49.296875 15.78125 -49.265625 L 15.796875 -49.203125 C 15.796875 -49.160156 15.828125 -49.125 15.890625 -49.09375 Z M 23.140625 -6.78125 L 23.125 -6.96875 C 23.082031 -6.914062 23.082031 -6.738281 23.125 -6.4375 C 23.101562 -6.570312 23.113281 -6.664062 23.15625 -6.71875 Z M 23.140625 -6.78125 "/></g></g></g><g fill="#1e1e1e" fill-opacity="1"><g transform="translate(250.759702, 171.399942)"><g><path d="M 4.515625 -25.203125 C 2.972656 -31.273438 2.019531 -36.253906 1.65625 -40.140625 C 1.332031 -41.960938 1.847656 -43.804688 3.203125 -45.671875 C 4.484375 -47.453125 5.925781 -48.53125 7.53125 -48.90625 C 9.300781 -49.257812 10.578125 -48.410156 11.359375 -46.359375 C 11.847656 -45.203125 12.453125 -43.867188 13.171875 -42.359375 C 13.898438 -40.859375 14.609375 -39.265625 15.296875 -37.578125 C 15.679688 -38.273438 16.28125 -39.5 17.09375 -41.25 C 17.90625 -43 18.675781 -44.570312 19.40625 -45.96875 C 21.164062 -49.351562 22.796875 -51.769531 24.296875 -53.21875 C 25.835938 -54.070312 27.207031 -54.4375 28.40625 -54.3125 C 29.613281 -54.1875 30.519531 -53.859375 31.125 -53.328125 C 31.738281 -52.804688 32.054688 -51.960938 32.078125 -50.796875 C 32.335938 -48.097656 30.847656 -43.617188 27.609375 -37.359375 C 26.835938 -35.910156 26.082031 -34.25 25.34375 -32.375 C 24.613281 -30.507812 23.757812 -28.421875 22.78125 -26.109375 C 21.8125 -23.796875 20.894531 -21.503906 20.03125 -19.234375 C 18.007812 -14.078125 16.535156 -9.234375 15.609375 -4.703125 C 15.640625 -4.796875 15.820312 -4.722656 16.15625 -4.484375 C 16.5 -4.242188 16.832031 -3.878906 17.15625 -3.390625 C 18 -2.210938 18.070312 -1.144531 17.375 -0.1875 C 15.613281 2.207031 13.238281 3.734375 10.25 4.390625 C 7.5 4.953125 5.046875 4.75 2.890625 3.78125 C 0.742188 2.882812 -0.0976562 1.546875 0.359375 -0.234375 L 0.15625 -0.21875 C 0.78125 -2.757812 1.546875 -5.179688 2.453125 -7.484375 C 3.367188 -9.785156 4.316406 -12.175781 5.296875 -14.65625 L 7.515625 -20.140625 C 6.804688 -19.867188 6.140625 -20.300781 5.515625 -21.4375 C 5.054688 -22.363281 4.722656 -23.617188 4.515625 -25.203125 Z M 4.515625 -25.203125 "/></g></g></g><g fill="#1e1e1e" fill-opacity="1"><g transform="translate(279.558188, 167.649333)"><g><path d="M 11.078125 2.328125 C 8.921875 2.691406 6.898438 2.679688 5.015625 2.296875 C 3.128906 1.921875 1.550781 1.273438 0.28125 0.359375 C -0.988281 -0.554688 -1.863281 -1.707031 -2.34375 -3.09375 C -2.832031 -4.476562 -2.765625 -5.972656 -2.140625 -7.578125 C -1.273438 -9.503906 0.859375 -10.328125 4.265625 -10.046875 C 6.859375 -9.847656 8.632812 -9.789062 9.59375 -9.875 C 10.550781 -9.957031 11.351562 -10.195312 12 -10.59375 C 14.96875 -12.019531 16.566406 -13.347656 16.796875 -14.578125 C 16.941406 -15.523438 16.253906 -16.5 14.734375 -17.5 C 14.109375 -17.925781 13.421875 -18.347656 12.671875 -18.765625 C 11.929688 -19.191406 11.296875 -19.640625 10.765625 -20.109375 C 8.429688 -21.398438 6.519531 -23 5.03125 -24.90625 C 3.550781 -26.8125 2.757812 -28.988281 2.65625 -31.4375 C 2.550781 -33.894531 2.691406 -35.960938 3.078125 -37.640625 C 3.472656 -39.316406 4.035156 -40.828125 4.765625 -42.171875 C 6.054688 -44.554688 7.867188 -46.585938 10.203125 -48.265625 C 12.910156 -50.140625 15.101562 -51.398438 16.78125 -52.046875 C 20.144531 -53.265625 23.632812 -53.78125 27.25 -53.59375 C 28.457031 -53.550781 29.523438 -53.285156 30.453125 -52.796875 C 31.378906 -52.316406 32.3125 -51.804688 33.25 -51.265625 C 34.945312 -49.972656 35.503906 -48.507812 34.921875 -46.875 C 34.722656 -46.164062 34.328125 -45.554688 33.734375 -45.046875 C 33.148438 -44.546875 32.503906 -44.222656 31.796875 -44.078125 C 32.023438 -42.941406 31.921875 -42.0625 31.484375 -41.4375 C 30.628906 -40.332031 29.007812 -39.472656 26.625 -38.859375 C 23.101562 -38.660156 20.769531 -38.160156 19.625 -37.359375 C 18.269531 -36.410156 17.953125 -34.675781 18.671875 -32.15625 C 18.828125 -31.625 19.25 -31.097656 19.9375 -30.578125 C 20.632812 -30.066406 21.441406 -29.523438 22.359375 -28.953125 C 23.273438 -28.390625 24.242188 -27.738281 25.265625 -27 C 26.296875 -26.257812 27.222656 -25.382812 28.046875 -24.375 C 30.941406 -20.757812 31.351562 -16.15625 29.28125 -10.5625 C 27.738281 -6.382812 24.625 -2.992188 19.9375 -0.390625 C 17.519531 0.960938 14.566406 1.867188 11.078125 2.328125 Z M 11.078125 2.328125 "/></g></g></g><g fill="#222222" fill-opacity="1"><g transform="translate(163.606721, 218.966047)"><g><path d="M 13.46875 -7.984375 C 12.8125 -7.328125 12.09375 -6.8125 11.3125 -6.4375 C 10.53125 -6.070312 9.734375 -5.890625 8.921875 -5.890625 C 8.109375 -5.898438 7.375 -6.148438 6.71875 -6.640625 C 6.4375 -4.910156 6.3125 -3.222656 6.34375 -1.578125 C 6.3125 -1.265625 6.21875 -0.976562 6.0625 -0.71875 C 5.875 0.320312 5.238281 1.085938 4.15625 1.578125 C 3.082031 2.046875 2.035156 2.132812 1.015625 1.84375 C 0.535156 1.695312 0.117188 1.453125 -0.234375 1.109375 C -0.585938 0.773438 -0.800781 0.328125 -0.875 -0.234375 C -0.226562 -4.867188 0.488281 -8.691406 1.28125 -11.703125 C 1.457031 -12.335938 1.597656 -12.851562 1.703125 -13.25 C 1.816406 -13.644531 1.914062 -13.976562 2 -14.25 C 2.09375 -14.53125 2.175781 -14.773438 2.25 -14.984375 C 2.320312 -15.191406 2.414062 -15.425781 2.53125 -15.6875 C 2.800781 -16.300781 3.097656 -17.007812 3.421875 -17.8125 C 3.742188 -18.625 4.03125 -19.238281 4.28125 -19.65625 C 4.539062 -20.082031 4.828125 -20.453125 5.140625 -20.765625 C 5.453125 -21.078125 5.796875 -21.382812 6.171875 -21.6875 C 6.554688 -22 7.035156 -22.394531 7.609375 -22.875 C 8.191406 -23.351562 8.832031 -23.679688 9.53125 -23.859375 C 10.226562 -24.046875 10.921875 -24.082031 11.609375 -23.96875 C 13.046875 -23.738281 14.195312 -22.925781 15.0625 -21.53125 C 15.8125 -20.226562 16.164062 -18.390625 16.125 -16.015625 C 16.039062 -12.378906 15.15625 -9.703125 13.46875 -7.984375 Z M 7.296875 -9.65625 C 8.765625 -10.195312 9.6875 -11.335938 10.0625 -13.078125 C 10.351562 -14.535156 10.222656 -16.132812 9.671875 -17.875 C 9.359375 -17.070312 9.082031 -16.257812 8.84375 -15.4375 C 8.601562 -14.613281 8.390625 -13.867188 8.203125 -13.203125 C 7.785156 -11.753906 7.484375 -10.570312 7.296875 -9.65625 Z M 7.296875 -9.65625 "/></g></g></g><g fill="#222222" fill-opacity="1"><g transform="translate(179.946123, 216.65842)"><g><path d="M 5.796875 -4.40625 C 6.898438 -4.445312 7.71875 -4.503906 8.25 -4.578125 C 8.78125 -4.648438 9.570312 -4.84375 10.625 -5.15625 C 10.976562 -5.082031 11.195312 -4.96875 11.28125 -4.8125 C 11.363281 -4.65625 11.40625 -4.484375 11.40625 -4.296875 C 11.414062 -4.109375 11.445312 -3.9375 11.5 -3.78125 C 11.550781 -3.625 11.75 -3.507812 12.09375 -3.4375 C 12.257812 -3.414062 12.332031 -3.257812 12.3125 -2.96875 C 12.289062 -2.6875 12.175781 -2.378906 11.96875 -2.046875 C 11.476562 -1.148438 10.832031 -0.484375 10.03125 -0.046875 C 8.75 0.472656 7.726562 0.8125 6.96875 0.96875 C 5.71875 1.25 4.332031 1.398438 2.8125 1.421875 C 1.132812 1.359375 0.253906 0.789062 0.171875 -0.28125 C -0.378906 -4.1875 -0.0859375 -8.226562 1.046875 -12.40625 C 1.441406 -13.769531 1.890625 -15.210938 2.390625 -16.734375 C 2.503906 -17.046875 2.546875 -17.390625 2.515625 -17.765625 C 2.492188 -18.140625 2.46875 -18.503906 2.4375 -18.859375 C 2.40625 -19.210938 2.414062 -19.535156 2.46875 -19.828125 C 2.53125 -20.128906 2.691406 -20.351562 2.953125 -20.5 C 6.609375 -22.59375 9.59375 -23.617188 11.90625 -23.578125 C 12.675781 -23.671875 13.222656 -23.476562 13.546875 -23 C 13.867188 -22.519531 13.976562 -21.953125 13.875 -21.296875 C 13.769531 -20.648438 13.472656 -20.007812 12.984375 -19.375 C 12.492188 -18.738281 11.832031 -18.289062 11 -18.03125 C 9.945312 -17.550781 9.304688 -17.238281 9.078125 -17.09375 C 8.640625 -16.8125 8.347656 -16.472656 8.203125 -16.078125 C 7.992188 -15.617188 7.804688 -15.1875 7.640625 -14.78125 C 7.472656 -14.382812 7.367188 -13.96875 7.328125 -13.53125 L 7.3125 -12.90625 C 7.6875 -12.789062 8.125 -12.800781 8.625 -12.9375 C 9.125 -13.070312 9.585938 -13.203125 10.015625 -13.328125 C 10.453125 -13.453125 10.804688 -13.503906 11.078125 -13.484375 C 11.359375 -13.472656 11.457031 -13.207031 11.375 -12.6875 C 11.289062 -12.175781 11.078125 -11.582031 10.734375 -10.90625 C 10.398438 -10.226562 9.875 -9.695312 9.15625 -9.3125 C 8.6875 -9.144531 8.363281 -9.023438 8.1875 -8.953125 C 8.007812 -8.878906 7.878906 -8.832031 7.796875 -8.8125 C 7.671875 -8.769531 7.300781 -8.6875 6.6875 -8.5625 C 6.03125 -6.957031 5.664062 -5.734375 5.59375 -4.890625 C 5.5625 -4.546875 5.628906 -4.382812 5.796875 -4.40625 Z M 5.796875 -4.40625 "/></g></g></g><g fill="#222222" fill-opacity="1"><g transform="translate(193.999083, 214.673709)"><g><path d="M 4.859375 0.96875 C 3.910156 1.132812 3.019531 1.132812 2.1875 0.96875 C 1.363281 0.8125 0.671875 0.535156 0.109375 0.140625 C -0.441406 -0.242188 -0.828125 -0.738281 -1.046875 -1.34375 C -1.265625 -1.945312 -1.238281 -2.601562 -0.96875 -3.3125 C -0.601562 -4.15625 0.320312 -4.519531 1.8125 -4.40625 C 2.9375 -4.34375 3.710938 -4.332031 4.140625 -4.375 C 4.578125 -4.414062 4.925781 -4.523438 5.1875 -4.703125 C 6.488281 -5.328125 7.1875 -5.914062 7.28125 -6.46875 C 7.34375 -6.863281 7.03125 -7.285156 6.34375 -7.734375 C 6.09375 -7.921875 5.796875 -8.101562 5.453125 -8.28125 C 5.117188 -8.46875 4.832031 -8.65625 4.59375 -8.84375 C 3.570312 -9.394531 2.734375 -10.085938 2.078125 -10.921875 C 1.421875 -11.753906 1.066406 -12.707031 1.015625 -13.78125 C 0.960938 -14.851562 1.015625 -15.753906 1.171875 -16.484375 C 1.335938 -17.222656 1.578125 -17.890625 1.890625 -18.484375 C 2.453125 -19.523438 3.234375 -20.421875 4.234375 -21.171875 C 5.410156 -22.003906 6.363281 -22.5625 7.09375 -22.84375 C 8.5625 -23.394531 10.085938 -23.640625 11.671875 -23.578125 C 12.203125 -23.554688 12.671875 -23.441406 13.078125 -23.234375 C 13.484375 -23.035156 13.894531 -22.820312 14.3125 -22.59375 C 15.050781 -22.03125 15.300781 -21.390625 15.0625 -20.671875 C 14.976562 -20.367188 14.804688 -20.101562 14.546875 -19.875 C 14.296875 -19.644531 14.015625 -19.5 13.703125 -19.4375 C 13.816406 -18.9375 13.773438 -18.550781 13.578125 -18.28125 C 13.210938 -17.78125 12.507812 -17.394531 11.46875 -17.125 C 9.925781 -17.007812 8.90625 -16.78125 8.40625 -16.4375 C 7.8125 -16.007812 7.679688 -15.253906 8.015625 -14.171875 C 8.085938 -13.921875 8.273438 -13.6875 8.578125 -13.46875 C 8.890625 -13.257812 9.25 -13.023438 9.65625 -12.765625 C 10.0625 -12.515625 10.488281 -12.234375 10.9375 -11.921875 C 11.382812 -11.609375 11.789062 -11.226562 12.15625 -10.78125 C 13.4375 -9.21875 13.640625 -7.210938 12.765625 -4.765625 C 12.097656 -2.929688 10.753906 -1.4375 8.734375 -0.28125 C 7.679688 0.332031 6.390625 0.75 4.859375 0.96875 Z M 4.859375 0.96875 "/></g></g></g><g fill="#222222" fill-opacity="1"><g transform="translate(208.832785, 212.578734)"><g><path d="M 8.703125 -8.53125 C 8.398438 -7 8.082031 -5.523438 7.75 -4.109375 C 7.414062 -2.691406 7.125 -1.609375 6.875 -0.859375 C 6.632812 -0.117188 6.398438 0.394531 6.171875 0.6875 C 5.953125 0.988281 5.710938 1.203125 5.453125 1.328125 C 5.203125 1.460938 4.9375 1.539062 4.65625 1.5625 C 4.382812 1.582031 4.113281 1.601562 3.84375 1.625 C 2.25 1.601562 1.609375 0.546875 1.921875 -1.546875 C 2.078125 -3.203125 2.203125 -4.554688 2.296875 -5.609375 C 2.398438 -6.660156 2.488281 -7.523438 2.5625 -8.203125 C 2.632812 -8.878906 2.691406 -9.441406 2.734375 -9.890625 C 2.773438 -10.347656 2.828125 -10.800781 2.890625 -11.25 C 2.960938 -11.695312 3.0625 -12.203125 3.1875 -12.765625 C 3.3125 -13.335938 3.460938 -14.09375 3.640625 -15.03125 C 2.953125 -14.84375 2.3125 -14.828125 1.71875 -14.984375 C 0.851562 -15.210938 0.410156 -15.925781 0.390625 -17.125 C 0.390625 -17.675781 0.609375 -18.21875 1.046875 -18.75 C 1.273438 -19.03125 1.546875 -19.335938 1.859375 -19.671875 C 2.492188 -20.347656 3.84375 -21.164062 5.90625 -22.125 C 8.050781 -23.101562 9.929688 -23.6875 11.546875 -23.875 C 11.953125 -24.007812 12.394531 -24.019531 12.875 -23.90625 C 13.363281 -23.789062 13.769531 -23.601562 14.09375 -23.34375 C 14.414062 -23.09375 14.601562 -22.789062 14.65625 -22.4375 C 14.707031 -22.09375 14.519531 -21.75 14.09375 -21.40625 C 13.90625 -21.21875 13.785156 -20.945312 13.734375 -20.59375 C 13.691406 -20.238281 13.640625 -19.859375 13.578125 -19.453125 C 13.523438 -19.054688 13.410156 -18.679688 13.234375 -18.328125 C 13.066406 -17.984375 12.757812 -17.753906 12.3125 -17.640625 C 12.082031 -17.472656 11.75 -17.328125 11.3125 -17.203125 C 10.882812 -17.085938 10.601562 -17.003906 10.46875 -16.953125 C 10.332031 -16.910156 10.265625 -16.851562 10.265625 -16.78125 C 10.066406 -15.738281 9.832031 -14.484375 9.5625 -13.015625 C 9.300781 -11.554688 9.015625 -10.0625 8.703125 -8.53125 Z M 3.890625 -15.375 C 3.847656 -15.363281 3.828125 -15.351562 3.828125 -15.34375 C 3.828125 -15.34375 3.847656 -15.347656 3.890625 -15.359375 Z M 3.890625 -15.375 "/></g></g></g><g fill="#222222" fill-opacity="1"><g transform="translate(222.272306, 210.680659)"><g/></g></g><g fill="#222222" fill-opacity="1"><g transform="translate(230.413981, 209.530804)"><g><path d="M 10.5625 -15.65625 C 10.488281 -16.21875 10.253906 -16.472656 9.859375 -16.421875 C 9.710938 -16.398438 9.539062 -16.335938 9.34375 -16.234375 C 9.15625 -16.128906 8.972656 -16.035156 8.796875 -15.953125 C 8.160156 -15.484375 7.679688 -15 7.359375 -14.5 C 7.046875 -14.007812 6.726562 -13.46875 6.40625 -12.875 C 6.082031 -12.289062 5.828125 -11.671875 5.640625 -11.015625 C 5.453125 -10.359375 5.320312 -9.75 5.25 -9.1875 C 4.976562 -7.132812 5.367188 -5.820312 6.421875 -5.25 C 6.847656 -5.039062 7.28125 -4.972656 7.71875 -5.046875 C 8.15625 -5.117188 8.492188 -5.253906 8.734375 -5.453125 C 8.984375 -5.648438 9.226562 -5.84375 9.46875 -6.03125 C 9.707031 -6.21875 9.992188 -6.367188 10.328125 -6.484375 C 10.671875 -6.597656 11.109375 -6.609375 11.640625 -6.515625 C 12.179688 -6.429688 12.488281 -6.257812 12.5625 -6 C 12.632812 -5.75 12.671875 -5.476562 12.671875 -5.1875 C 12.679688 -4.90625 12.710938 -4.65625 12.765625 -4.4375 C 12.828125 -4.226562 13.039062 -4.125 13.40625 -4.125 C 13.820312 -3.71875 13.679688 -3.144531 12.984375 -2.40625 C 12.796875 -2.207031 12.617188 -2.019531 12.453125 -1.84375 C 11.003906 -0.59375 9.382812 0.210938 7.59375 0.578125 C 6.46875 0.816406 5.234375 0.78125 3.890625 0.46875 C 1.859375 0.0195312 0.546875 -1.453125 -0.046875 -3.953125 C -0.691406 -6.242188 -0.738281 -8.710938 -0.1875 -11.359375 C 0.269531 -13.585938 1.148438 -15.710938 2.453125 -17.734375 C 3.617188 -19.585938 4.84375 -20.859375 6.125 -21.546875 C 7.613281 -22.609375 9.316406 -23.179688 11.234375 -23.265625 C 13.242188 -23.285156 14.660156 -22.625 15.484375 -21.28125 C 16.296875 -19.925781 16.441406 -18.1875 15.921875 -16.0625 C 15.734375 -15.320312 15.28125 -14.691406 14.5625 -14.171875 C 13.9375 -13.710938 13.234375 -13.425781 12.453125 -13.3125 C 11.679688 -13.195312 11.144531 -13.367188 10.84375 -13.828125 C 10.550781 -14.296875 10.457031 -14.90625 10.5625 -15.65625 Z M 10.5625 -15.65625 "/></g></g></g><g fill="#222222" fill-opacity="1"><g transform="translate(245.833229, 207.353131)"><g><path d="M 3.046875 -19.265625 C 4.035156 -20.765625 5.21875 -21.785156 6.59375 -22.328125 C 7.550781 -22.703125 8.488281 -22.800781 9.40625 -22.625 C 9.988281 -23.4375 10.84375 -23.816406 11.96875 -23.765625 C 13 -23.710938 13.941406 -23.265625 14.796875 -22.421875 C 14.835938 -22.304688 14.941406 -22.125 15.109375 -21.875 C 15.273438 -21.632812 15.429688 -21.359375 15.578125 -21.046875 C 16.671875 -19.265625 17.082031 -16.785156 16.8125 -13.609375 C 16.5 -9.671875 15.441406 -6.210938 13.640625 -3.234375 C 13.085938 -2.328125 12.4375 -1.539062 11.6875 -0.875 C 10.488281 0.34375 8.953125 1.023438 7.078125 1.171875 C 5.910156 1.273438 4.90625 1.117188 4.0625 0.703125 C 0.726562 -0.398438 -0.742188 -3.476562 -0.359375 -8.53125 C -0.015625 -12.664062 1.117188 -16.242188 3.046875 -19.265625 Z M 5.484375 -4.5 L 5.484375 -4.328125 L 5.5625 -4.03125 C 5.757812 -3.476562 6.007812 -3.0625 6.3125 -2.78125 C 6.625 -2.507812 6.863281 -2.347656 7.03125 -2.296875 C 7.195312 -2.472656 7.363281 -2.640625 7.53125 -2.796875 C 7.707031 -2.960938 7.851562 -3.148438 7.96875 -3.359375 C 9.019531 -5.085938 9.71875 -7.265625 10.0625 -9.890625 C 10.414062 -12.515625 10.34375 -14.898438 9.84375 -17.046875 C 9.257812 -16.003906 8.65625 -14.820312 8.03125 -13.5 C 7.40625 -12.175781 6.914062 -11.054688 6.5625 -10.140625 C 5.78125 -7.992188 5.421875 -6.113281 5.484375 -4.5 Z M 5.484375 -4.5 "/></g></g></g><g fill="#222222" fill-opacity="1"><g transform="translate(263.092782, 204.91555)"><g><path d="M 0.375 -11.09375 C 0.5625 -12.382812 0.722656 -13.390625 0.859375 -14.109375 C 1.003906 -14.828125 1.148438 -15.472656 1.296875 -16.046875 C 1.441406 -16.617188 1.625 -17.171875 1.84375 -17.703125 C 2.0625 -18.242188 2.3125 -18.75 2.59375 -19.21875 C 2.875 -19.6875 3.191406 -20.066406 3.546875 -20.359375 C 3.910156 -20.648438 4.304688 -20.828125 4.734375 -20.890625 C 5.160156 -20.953125 5.625 -20.847656 6.125 -20.578125 C 7.144531 -18.816406 7.78125 -17.640625 8.03125 -17.046875 C 8.382812 -16.148438 8.773438 -14.867188 9.203125 -13.203125 C 9.316406 -13.640625 9.445312 -14.109375 9.59375 -14.609375 C 9.738281 -15.117188 9.875 -15.632812 10 -16.15625 C 10.414062 -17.46875 10.648438 -18.445312 10.703125 -19.09375 C 10.929688 -20.445312 11.640625 -21.546875 12.828125 -22.390625 C 13.859375 -23.109375 14.875 -23.429688 15.875 -23.359375 C 16.28125 -23.335938 16.578125 -23.21875 16.765625 -23 C 16.953125 -22.78125 16.988281 -22.523438 16.875 -22.234375 C 16.757812 -21.953125 16.738281 -21.695312 16.8125 -21.46875 C 16.894531 -21.238281 16.976562 -20.976562 17.0625 -20.6875 C 17.238281 -19.832031 17.195312 -19.050781 16.9375 -18.34375 C 16.675781 -17.632812 16.425781 -16.765625 16.1875 -15.734375 C 15.945312 -14.703125 15.71875 -13.613281 15.5 -12.46875 C 15.28125 -11.320312 15.050781 -10.148438 14.8125 -8.953125 C 14.582031 -7.765625 14.347656 -6.675781 14.109375 -5.6875 C 13.578125 -3.4375 13.070312 -2.160156 12.59375 -1.859375 C 11.945312 -1.328125 11.460938 -1.003906 11.140625 -0.890625 C 10.722656 -0.753906 10.117188 -0.664062 9.328125 -0.625 C 8.847656 -0.59375 8.34375 -1.160156 7.8125 -2.328125 C 7.507812 -2.953125 7.195312 -3.828125 6.875 -4.953125 C 6.289062 -6.921875 5.929688 -8 5.796875 -8.1875 C 5.378906 -5.664062 5.0625 -4.066406 4.84375 -3.390625 C 4.632812 -2.710938 4.460938 -2.257812 4.328125 -2.03125 C 4.203125 -1.800781 4.050781 -1.507812 3.875 -1.15625 C 3.738281 -0.445312 3.234375 0.128906 2.359375 0.578125 C 1.617188 0.984375 0.914062 1.128906 0.25 1.015625 C -0.457031 0.890625 -0.71875 0.488281 -0.53125 -0.1875 C -0.65625 -2.445312 -0.351562 -6.082031 0.375 -11.09375 Z M 0.375 -11.09375 "/></g></g></g><g fill="#222222" fill-opacity="1"><g transform="translate(280.10139, 202.513411)"><g><path d="M 8.703125 -8.53125 C 8.398438 -7 8.082031 -5.523438 7.75 -4.109375 C 7.414062 -2.691406 7.125 -1.609375 6.875 -0.859375 C 6.632812 -0.117188 6.398438 0.394531 6.171875 0.6875 C 5.953125 0.988281 5.710938 1.203125 5.453125 1.328125 C 5.203125 1.460938 4.9375 1.539062 4.65625 1.5625 C 4.382812 1.582031 4.113281 1.601562 3.84375 1.625 C 2.25 1.601562 1.609375 0.546875 1.921875 -1.546875 C 2.078125 -3.203125 2.203125 -4.554688 2.296875 -5.609375 C 2.398438 -6.660156 2.488281 -7.523438 2.5625 -8.203125 C 2.632812 -8.878906 2.691406 -9.441406 2.734375 -9.890625 C 2.773438 -10.347656 2.828125 -10.800781 2.890625 -11.25 C 2.960938 -11.695312 3.0625 -12.203125 3.1875 -12.765625 C 3.3125 -13.335938 3.460938 -14.09375 3.640625 -15.03125 C 2.953125 -14.84375 2.3125 -14.828125 1.71875 -14.984375 C 0.851562 -15.210938 0.410156 -15.925781 0.390625 -17.125 C 0.390625 -17.675781 0.609375 -18.21875 1.046875 -18.75 C 1.273438 -19.03125 1.546875 -19.335938 1.859375 -19.671875 C 2.492188 -20.347656 3.84375 -21.164062 5.90625 -22.125 C 8.050781 -23.101562 9.929688 -23.6875 11.546875 -23.875 C 11.953125 -24.007812 12.394531 -24.019531 12.875 -23.90625 C 13.363281 -23.789062 13.769531 -23.601562 14.09375 -23.34375 C 14.414062 -23.09375 14.601562 -22.789062 14.65625 -22.4375 C 14.707031 -22.09375 14.519531 -21.75 14.09375 -21.40625 C 13.90625 -21.21875 13.785156 -20.945312 13.734375 -20.59375 C 13.691406 -20.238281 13.640625 -19.859375 13.578125 -19.453125 C 13.523438 -19.054688 13.410156 -18.679688 13.234375 -18.328125 C 13.066406 -17.984375 12.757812 -17.753906 12.3125 -17.640625 C 12.082031 -17.472656 11.75 -17.328125 11.3125 -17.203125 C 10.882812 -17.085938 10.601562 -17.003906 10.46875 -16.953125 C 10.332031 -16.910156 10.265625 -16.851562 10.265625 -16.78125 C 10.066406 -15.738281 9.832031 -14.484375 9.5625 -13.015625 C 9.300781 -11.554688 9.015625 -10.0625 8.703125 -8.53125 Z M 3.890625 -15.375 C 3.847656 -15.363281 3.828125 -15.351562 3.828125 -15.34375 C 3.828125 -15.34375 3.847656 -15.347656 3.890625 -15.359375 Z M 3.890625 -15.375 "/></g></g></g><g fill="#222222" fill-opacity="1"><g transform="translate(293.540916, 200.615336)"><g><path d="M 4.90625 -0.609375 C 4.832031 0.160156 4.316406 0.695312 3.359375 1 C 2.460938 1.300781 1.582031 1.320312 0.71875 1.0625 C -0.238281 0.800781 -0.710938 0.3125 -0.703125 -0.40625 C -0.960938 -1.476562 -0.726562 -3.90625 0 -7.6875 C 1.101562 -13.351562 2.414062 -17.484375 3.9375 -20.078125 C 4.332031 -20.742188 4.691406 -21.1875 5.015625 -21.40625 C 5.335938 -21.632812 5.707031 -21.851562 6.125 -22.0625 C 6.550781 -22.28125 6.992188 -22.488281 7.453125 -22.6875 C 8.390625 -23.082031 9.285156 -23.390625 10.140625 -23.609375 C 10.992188 -23.828125 11.78125 -23.832031 12.5 -23.625 C 13.226562 -23.425781 13.828125 -23.050781 14.296875 -22.5 C 14.773438 -21.957031 15.113281 -21.289062 15.3125 -20.5 C 15.519531 -19.707031 15.609375 -18.859375 15.578125 -17.953125 C 15.554688 -17.046875 15.414062 -16.113281 15.15625 -15.15625 C 14.894531 -14.195312 14.519531 -13.285156 14.03125 -12.421875 C 12.96875 -10.523438 11.597656 -9.207031 9.921875 -8.46875 L 10.28125 -8.015625 C 10.570312 -7.671875 10.921875 -7.300781 11.328125 -6.90625 C 11.734375 -6.519531 12.140625 -6.117188 12.546875 -5.703125 C 12.953125 -5.285156 13.328125 -4.863281 13.671875 -4.4375 C 14.023438 -4.019531 14.300781 -3.609375 14.5 -3.203125 C 14.90625 -2.335938 14.757812 -1.648438 14.0625 -1.140625 C 13.507812 -0.679688 13.039062 -0.519531 12.65625 -0.65625 C 12.488281 -0.726562 12.316406 -0.820312 12.140625 -0.9375 C 11.972656 -1.050781 11.757812 -1.132812 11.5 -1.1875 C 10.445312 -0.726562 9.566406 -0.894531 8.859375 -1.6875 C 8.441406 -2.1875 8.101562 -2.65625 7.84375 -3.09375 C 7.59375 -3.53125 7.378906 -3.898438 7.203125 -4.203125 C 6.765625 -4.847656 6.300781 -5.390625 5.8125 -5.828125 C 5.664062 -5.296875 5.519531 -4.617188 5.375 -3.796875 C 5.195312 -2.765625 4.992188 -1.695312 4.765625 -0.59375 Z M 8.234375 -17.640625 C 7.992188 -16.785156 7.832031 -16.195312 7.75 -15.875 C 7.582031 -15.1875 7.390625 -14.445312 7.171875 -13.65625 C 7.179688 -13.238281 7.175781 -12.941406 7.15625 -12.765625 L 7.484375 -13.203125 L 7.9375 -13.484375 C 8.25 -13.722656 8.53125 -13.9375 8.78125 -14.125 C 9.039062 -14.3125 9.269531 -14.535156 9.46875 -14.796875 C 9.820312 -15.273438 10.09375 -16.019531 10.28125 -17.03125 C 10.25 -17.21875 10.253906 -17.410156 10.296875 -17.609375 C 10.335938 -17.804688 10.359375 -18.003906 10.359375 -18.203125 C 10.367188 -18.617188 10.15625 -18.878906 9.71875 -18.984375 C 9.34375 -18.972656 8.921875 -18.601562 8.453125 -17.875 C 8.359375 -17.726562 8.285156 -17.648438 8.234375 -17.640625 Z M 8.234375 -17.640625 "/></g></g></g><g fill="#222222" fill-opacity="1"><g transform="translate(309.211122, 198.40222)"><g><path d="M 3.046875 -19.265625 C 4.035156 -20.765625 5.21875 -21.785156 6.59375 -22.328125 C 7.550781 -22.703125 8.488281 -22.800781 9.40625 -22.625 C 9.988281 -23.4375 10.84375 -23.816406 11.96875 -23.765625 C 13 -23.710938 13.941406 -23.265625 14.796875 -22.421875 C 14.835938 -22.304688 14.941406 -22.125 15.109375 -21.875 C 15.273438 -21.632812 15.429688 -21.359375 15.578125 -21.046875 C 16.671875 -19.265625 17.082031 -16.785156 16.8125 -13.609375 C 16.5 -9.671875 15.441406 -6.210938 13.640625 -3.234375 C 13.085938 -2.328125 12.4375 -1.539062 11.6875 -0.875 C 10.488281 0.34375 8.953125 1.023438 7.078125 1.171875 C 5.910156 1.273438 4.90625 1.117188 4.0625 0.703125 C 0.726562 -0.398438 -0.742188 -3.476562 -0.359375 -8.53125 C -0.015625 -12.664062 1.117188 -16.242188 3.046875 -19.265625 Z M 5.484375 -4.5 L 5.484375 -4.328125 L 5.5625 -4.03125 C 5.757812 -3.476562 6.007812 -3.0625 6.3125 -2.78125 C 6.625 -2.507812 6.863281 -2.347656 7.03125 -2.296875 C 7.195312 -2.472656 7.363281 -2.640625 7.53125 -2.796875 C 7.707031 -2.960938 7.851562 -3.148438 7.96875 -3.359375 C 9.019531 -5.085938 9.71875 -7.265625 10.0625 -9.890625 C 10.414062 -12.515625 10.34375 -14.898438 9.84375 -17.046875 C 9.257812 -16.003906 8.65625 -14.820312 8.03125 -13.5 C 7.40625 -12.175781 6.914062 -11.054688 6.5625 -10.140625 C 5.78125 -7.992188 5.421875 -6.113281 5.484375 -4.5 Z M 5.484375 -4.5 "/></g></g></g><g fill="#222222" fill-opacity="1"><g transform="translate(326.47068, 195.964639)"><g><path d="M 9.875 -0.03125 C 9.5 0.132812 9.132812 0.242188 8.78125 0.296875 C 8.425781 0.359375 8.066406 0.425781 7.703125 0.5 C 7.347656 0.570312 6.851562 0.648438 6.21875 0.734375 C 5.59375 0.828125 4.644531 0.941406 3.375 1.078125 C 3.070312 1.148438 2.769531 1.207031 2.46875 1.25 C 2.175781 1.289062 1.894531 1.269531 1.625 1.1875 C 1.007812 1.03125 0.535156 0.53125 0.203125 -0.3125 C 0.0546875 -0.707031 -0.0859375 -0.976562 -0.234375 -1.125 C -0.378906 -1.28125 -0.5 -1.429688 -0.59375 -1.578125 C -0.820312 -1.835938 -0.875 -2.328125 -0.75 -3.046875 C -0.632812 -3.765625 -0.484375 -4.648438 -0.296875 -5.703125 C -0.109375 -6.765625 0.125 -7.894531 0.40625 -9.09375 C 1.019531 -11.945312 1.613281 -14.210938 2.1875 -15.890625 C 2.40625 -16.660156 2.59375 -17.320312 2.75 -17.875 C 2.90625 -18.425781 3.050781 -18.898438 3.1875 -19.296875 C 3.320312 -19.703125 3.390625 -19.914062 3.390625 -19.9375 C 3.472656 -20.664062 4.101562 -21.363281 5.28125 -22.03125 C 6.425781 -22.695312 7.507812 -22.976562 8.53125 -22.875 C 9.664062 -22.757812 10.253906 -22.101562 10.296875 -20.90625 C 10.179688 -19.71875 9.945312 -18.507812 9.59375 -17.28125 C 9.25 -16.0625 8.84375 -14.773438 8.375 -13.421875 C 7.90625 -12.066406 7.390625 -10.628906 6.828125 -9.109375 C 6.265625 -7.585938 5.726562 -5.941406 5.21875 -4.171875 C 5.195312 -4.097656 5.238281 -4.039062 5.34375 -4 C 5.59375 -4.050781 5.921875 -4.175781 6.328125 -4.375 C 6.742188 -4.570312 7.179688 -4.75 7.640625 -4.90625 C 8.109375 -5.070312 8.578125 -5.1875 9.046875 -5.25 C 9.515625 -5.320312 9.921875 -5.257812 10.265625 -5.0625 C 10.285156 -4.726562 10.40625 -4.472656 10.625 -4.296875 C 10.84375 -4.128906 11.054688 -3.972656 11.265625 -3.828125 C 11.804688 -3.398438 11.941406 -2.757812 11.671875 -1.90625 C 11.398438 -1.082031 10.800781 -0.457031 9.875 -0.03125 Z M 9.875 -0.03125 "/></g></g></g><g fill="#1e1e1e" fill-opacity="1"><g transform="translate(53.666174, 139.120875)"><g><path d="M 5.84375 -4.40625 L 5.828125 -4.15625 C 5.828125 -4.113281 5.847656 -4.070312 5.890625 -4.03125 C 5.941406 -4 6 -3.984375 6.0625 -3.984375 C 6.125 -3.992188 6.171875 -4.035156 6.203125 -4.109375 C 7.191406 -5.785156 8.003906 -7.253906 8.640625 -8.515625 C 9.285156 -9.773438 9.753906 -10.695312 10.046875 -11.28125 C 10.347656 -11.875 10.582031 -12.347656 10.75 -12.703125 C 11.226562 -13.617188 11.707031 -14.445312 12.1875 -15.1875 C 10.125 -14.425781 8.492188 -13.976562 7.296875 -13.84375 C 6.097656 -13.71875 5.226562 -13.703125 4.6875 -13.796875 C 4.15625 -13.898438 3.796875 -14.039062 3.609375 -14.21875 C 3.429688 -14.394531 3.332031 -14.582031 3.3125 -14.78125 C 3.289062 -14.976562 3.273438 -15.164062 3.265625 -15.34375 C 3.253906 -15.738281 3.457031 -16.082031 3.875 -16.375 C 4.289062 -16.675781 4.640625 -16.84375 4.921875 -16.875 C 5.210938 -16.90625 5.359375 -16.878906 5.359375 -16.796875 C 5.367188 -16.710938 5.316406 -16.59375 5.203125 -16.4375 C 5.085938 -16.28125 5.035156 -16.171875 5.046875 -16.109375 C 5.078125 -15.859375 5.992188 -15.828125 7.796875 -16.015625 C 9.609375 -16.210938 11.664062 -16.679688 13.96875 -17.421875 C 15.175781 -18.660156 16.273438 -19.332031 17.265625 -19.4375 C 17.898438 -19.507812 18.347656 -19.378906 18.609375 -19.046875 C 18.765625 -18.835938 18.851562 -18.625 18.875 -18.40625 C 18.90625 -18.1875 18.804688 -17.953125 18.578125 -17.703125 C 18.347656 -17.453125 18.03125 -17.226562 17.625 -17.03125 C 16.863281 -16.675781 15.96875 -16.359375 14.9375 -16.078125 C 14.550781 -15.453125 14.015625 -14.488281 13.328125 -13.1875 C 12.640625 -11.894531 12.164062 -11.023438 11.90625 -10.578125 C 11.65625 -10.128906 11.257812 -9.328125 10.71875 -8.171875 C 10.175781 -7.015625 9.707031 -6.015625 9.3125 -5.171875 C 8.914062 -4.335938 8.484375 -3.503906 8.015625 -2.671875 C 7.066406 -0.972656 6.15625 -0.078125 5.28125 0.015625 C 4.90625 0.0546875 4.578125 -0.00390625 4.296875 -0.171875 C 4.015625 -0.347656 3.847656 -0.65625 3.796875 -1.09375 C 3.753906 -1.53125 3.9375 -2.109375 4.34375 -2.828125 C 4.757812 -3.546875 5.070312 -4.007812 5.28125 -4.21875 C 5.488281 -4.4375 5.628906 -4.546875 5.703125 -4.546875 C 5.785156 -4.554688 5.832031 -4.507812 5.84375 -4.40625 Z M 5.84375 -4.40625 "/></g></g></g><g fill="#1e1e1e" fill-opacity="1"><g transform="translate(67.271317, 137.642888)"><g><path d="M 10.671875 -4.671875 C 10.765625 -4.304688 10.820312 -4.019531 10.84375 -3.8125 C 10.863281 -3.601562 10.84375 -3.421875 10.78125 -3.265625 C 10.726562 -3.109375 10.585938 -2.878906 10.359375 -2.578125 C 10.140625 -2.273438 9.867188 -1.960938 9.546875 -1.640625 C 8.765625 -0.859375 7.921875 -0.414062 7.015625 -0.3125 C 5.734375 -0.175781 5.03125 -0.679688 4.90625 -1.828125 C 4.800781 -2.816406 5.445312 -4.882812 6.84375 -8.03125 C 6.894531 -8.15625 6.929688 -8.238281 6.953125 -8.28125 C 6.398438 -7.800781 5.375 -6.523438 3.875 -4.453125 C 2.375 -2.390625 1.390625 -0.9375 0.921875 -0.09375 C 0.878906 -0.0195312 0.765625 0.0664062 0.578125 0.171875 C 0.398438 0.273438 0.257812 0.332031 0.15625 0.34375 C 0.0507812 0.351562 -0.0625 0.332031 -0.1875 0.28125 C -0.320312 0.238281 -0.40625 0.21875 -0.4375 0.21875 C -0.53125 0.226562 -0.578125 0.195312 -0.578125 0.125 C -0.585938 0.0625 -0.488281 -0.304688 -0.28125 -0.984375 C -0.0820312 -1.671875 0.191406 -2.523438 0.546875 -3.546875 C 1.492188 -6.347656 2.960938 -10.03125 4.953125 -14.59375 C 5.648438 -16.1875 6.207031 -17.320312 6.625 -18 C 6.925781 -18.476562 7.484375 -18.757812 8.296875 -18.84375 C 8.460938 -18.863281 8.5625 -18.820312 8.59375 -18.71875 C 8.632812 -18.625 8.660156 -18.519531 8.671875 -18.40625 C 8.679688 -18.289062 8.664062 -18.175781 8.625 -18.0625 L 7.59375 -15.9375 C 5.53125 -11.800781 4.007812 -8.390625 3.03125 -5.703125 C 4.09375 -7.316406 5.144531 -8.59375 6.1875 -9.53125 C 6.851562 -10.101562 7.363281 -10.410156 7.71875 -10.453125 C 8.070312 -10.492188 8.398438 -10.472656 8.703125 -10.390625 C 9.003906 -10.316406 9.179688 -10.066406 9.234375 -9.640625 C 9.242188 -9.484375 9.050781 -8.867188 8.65625 -7.796875 C 7.445312 -4.628906 6.859375 -2.878906 6.890625 -2.546875 C 6.929688 -2.222656 7.09375 -2.078125 7.375 -2.109375 C 7.769531 -2.148438 8.335938 -2.601562 9.078125 -3.46875 C 9.648438 -4.125 10.007812 -4.539062 10.15625 -4.71875 C 10.238281 -4.800781 10.316406 -4.847656 10.390625 -4.859375 C 10.546875 -4.878906 10.640625 -4.816406 10.671875 -4.671875 Z M 10.671875 -4.671875 "/></g></g></g><g fill="#1e1e1e" fill-opacity="1"><g transform="translate(76.704684, 136.618098)"><g><path d="M 7.84375 -9.734375 C 7.894531 -9.210938 7.734375 -8.726562 7.359375 -8.28125 C 6.984375 -7.84375 6.53125 -7.597656 6 -7.546875 C 5.832031 -7.523438 5.71875 -7.550781 5.65625 -7.625 C 5.59375 -7.707031 5.550781 -7.816406 5.53125 -7.953125 C 5.519531 -8.085938 5.523438 -8.21875 5.546875 -8.34375 C 5.273438 -8.21875 4.972656 -8.035156 4.640625 -7.796875 C 4.316406 -7.566406 3.925781 -7.234375 3.46875 -6.796875 C 3.019531 -6.367188 2.804688 -6.0625 2.828125 -5.875 C 2.828125 -5.8125 2.914062 -5.789062 3.09375 -5.8125 C 3.28125 -5.832031 3.554688 -5.925781 3.921875 -6.09375 C 4.296875 -6.269531 4.5625 -6.363281 4.71875 -6.375 C 4.875 -6.394531 4.972656 -6.394531 5.015625 -6.375 C 5.117188 -6.332031 5.238281 -6.226562 5.375 -6.0625 C 5.519531 -5.894531 5.597656 -5.753906 5.609375 -5.640625 C 5.628906 -5.535156 5.539062 -5.382812 5.34375 -5.1875 C 5.15625 -4.988281 4.9375 -4.832031 4.6875 -4.71875 C 4.4375 -4.601562 4.269531 -4.519531 4.1875 -4.46875 C 2.644531 -3.363281 1.894531 -2.640625 1.9375 -2.296875 C 2 -1.691406 2.550781 -1.445312 3.59375 -1.5625 C 4.25 -1.632812 4.894531 -1.914062 5.53125 -2.40625 C 6.0625 -2.820312 6.535156 -3.238281 6.953125 -3.65625 C 7.367188 -4.082031 7.628906 -4.347656 7.734375 -4.453125 C 7.847656 -4.554688 7.9375 -4.609375 8 -4.609375 C 8.207031 -4.640625 8.335938 -4.425781 8.390625 -3.96875 C 8.441406 -3.507812 8.445312 -3.203125 8.40625 -3.046875 C 8.363281 -2.890625 8.222656 -2.695312 7.984375 -2.46875 C 6.460938 -0.925781 4.957031 -0.078125 3.46875 0.078125 C 2.664062 0.171875 2.015625 0.132812 1.515625 -0.03125 C 0.597656 -0.332031 0.09375 -0.890625 0 -1.703125 C -0.113281 -2.796875 0.539062 -3.695312 1.96875 -4.40625 C 1.664062 -4.507812 1.457031 -4.660156 1.34375 -4.859375 C 1.226562 -5.054688 1.144531 -5.382812 1.09375 -5.84375 C 1.050781 -6.300781 1.210938 -6.804688 1.578125 -7.359375 C 1.953125 -7.921875 2.4375 -8.398438 3.03125 -8.796875 C 4.320312 -9.691406 5.503906 -10.195312 6.578125 -10.3125 C 6.835938 -10.34375 7.109375 -10.3125 7.390625 -10.21875 C 7.671875 -10.125 7.820312 -9.960938 7.84375 -9.734375 Z M 7.84375 -9.734375 "/></g></g></g></svg>