<?xml version="1.0" encoding="iso-8859-1"?>
<!-- Uploaded to: SVG Repo, www.svgrepo.com, Generator: SVG Repo Mixer Tools -->
<svg fill="#000000" height="800px" width="800px" version="1.1" id="Layer_1" xmlns="http://www.w3.org/2000/svg" xmlns:xlink="http://www.w3.org/1999/xlink" 
	 viewBox="0 0 512 512" xml:space="preserve">
<g>
	<g>
		<path d="M453.545,324.019c-15.487-26.813-41.958-60.002-68.124-85.538h39.089c9.425,0,17.067-7.641,17.067-17.067
			s-7.641-17.067-17.067-17.067h-81.808c-2.685-1.555-5.303-2.933-7.853-4.128l45.996-18.323
			c6.492-2.586,10.751-8.868,10.751-15.855V44.977c0-9.425-7.641-17.067-17.067-17.067s-17.067,7.641-17.067,17.067v109.492
			l-51.99,20.71c9.059-11.041,14.504-25.154,14.504-40.516c0-29.367-19.895-54.159-46.911-61.648V17.067
			C273.066,7.641,265.425,0,255.999,0c-9.425,0-17.067,7.641-17.067,17.067v55.949c-27.015,7.489-46.911,32.281-46.911,61.648
			c0,15.362,5.447,29.475,14.504,40.516l-51.99-20.71V44.977c0-9.425-7.641-17.067-17.067-17.067s-17.067,7.641-17.067,17.067
			v121.064c0,6.988,4.26,13.27,10.751,15.855l46.072,18.352c-2.579,1.213-5.179,2.588-7.787,4.097H87.49
			c-9.425,0-17.067,7.641-17.067,17.067s7.641,17.067,17.067,17.067h39.084c-25.853,25.236-52.728,58.888-68.122,85.542
			c-27.03,46.824-32.534,100.956,12.643,127.036c29.016,16.751,60.365,9.513,85.959-13.599v57.475
			c0,9.425,7.641,17.067,17.067,17.067s17.067-7.641,17.067-17.067V391.597c0.524-0.969,1.041-1.942,1.555-2.917
			c10.853,24.145,35.115,41.008,63.257,41.008s52.404-16.864,63.258-41.009c0.513,0.974,1.03,1.947,1.553,2.915v103.34
			c0,9.425,7.641,17.067,17.067,17.067s17.067-7.641,17.067-17.067v-57.473c25.633,23.151,56.983,30.325,85.96,13.598h-0.001
			C485.895,425.086,480.749,371.145,453.545,324.019z M141.956,404.173c-24.376,28.023-44.167,22.883-53.795,17.325
			c-27.376-15.804-15.894-53.134-0.149-80.407c27.757-48.057,89.24-110.537,111.568-112.626c0.017,0.038,0.035,0.075,0.052,0.113
			C209.418,252.317,179.038,361.464,141.956,404.173z M423.839,421.498c-9.629,5.557-29.418,10.699-53.784-17.315
			c-37.179-42.82-67.991-153.975-57.623-175.743c22.501,2.208,83.921,64.803,111.555,112.647
			C439.795,368.475,451.165,405.721,423.839,421.498z"/>
	</g>
</g>
</svg>