<?xml version="1.0" encoding="iso-8859-1"?>
<!-- Uploaded to: SVG Repo, www.svgrepo.com, Generator: SVG Repo Mixer Tools -->
<svg height="800px" width="800px" version="1.1" id="Layer_1" xmlns="http://www.w3.org/2000/svg" xmlns:xlink="http://www.w3.org/1999/xlink" 
	 viewBox="0 0 511.999 511.999" xml:space="preserve">
<path style="fill:#CFCAC4;" d="M231.345,280.659c0,0,0,151.346,24.655,151.346s24.655-151.346,24.655-151.346L231.345,280.659
	L231.345,280.659z"/>
<path style="fill:#ADA9A7;" d="M231.968,319.347h48.063c0.618-18.34,0.623-31.346,0.623-31.346h-49.31
	C231.345,288.001,231.35,301.007,231.968,319.347z"/>
<path style="fill:#CFCAC4;" d="M296,239.554c0,55.842-17.909,54.444-40,54.444s-40,1.397-40-54.444c0-55.843,13.49-85.556,40-85.556
	S296,180.781,296,239.554z"/>
<g>
	<path style="fill:#ADA9A7;" d="M229.651,263.849c0.83,12.824,2.06,22.646,3.628,30.115c7.077-5.188,15.206-2.963,24.546-2.963
		s17.469-2.225,24.546,2.963c1.569-7.469,2.798-17.291,3.628-30.115c-8.271-6.434-17.652-9.839-28.174-9.839
		S237.923,257.415,229.651,263.849z"/>
	<path style="fill:#ADA9A7;" d="M219.718,200.097c-1.306,9.879-2.257,20.879-2.872,32.913c9.992-11.17,22.94-16.92,39.154-16.92
		s29.163,5.75,39.154,16.92c-0.615-12.034-1.566-23.034-2.872-32.913c-10.384-7.257-22.472-11.096-36.282-11.096
		S230.102,192.84,219.718,200.097z"/>
	<path style="fill:#ADA9A7;" d="M277.254,357.005h-42.508c0.469,7.422,1,14.799,1.608,22h39.292
		C276.254,371.804,276.785,364.427,277.254,357.005z"/>
</g>
<g>
	<path style="fill:#CFCAC4;" d="M233.53,351.005h44.939c0.357-10.238,0.66-20.312,0.91-30H232.62
		C232.87,330.693,233.173,340.767,233.53,351.005z"/>
	<path style="fill:#CFCAC4;" d="M273.46,385.001h-34.921c0.921,6.467,1.956,12.545,3.128,18h28.665
		C271.505,397.546,272.539,391.468,273.46,385.001z"/>
</g>
<path d="M347.578,0.846c-3.952-1.976-8.758-0.374-10.733,3.577l-70.662,141.323c-3.274-1.136-6.677-1.745-10.183-1.745
	s-6.909,0.609-10.183,1.745L175.155,4.423c-1.975-3.95-6.78-5.553-10.733-3.577c-3.952,1.976-5.554,6.781-3.578,10.733
	l71.332,142.664c-14.048,13.131-23.502,37.701-24.131,66.673l-13.516-4.505c-4.192-1.396-8.722,0.869-10.119,5.06
	c-1.397,4.192,0.868,8.723,5.06,10.12l19.247,6.416c1.524,14.953,5.453,28.361,11.13,39.127l-21.736,10.867H192
	c-4.418,0-8,3.582-8,8s3.582,8,8,8h8c1.242,0,2.467-0.289,3.578-0.845l19.908-9.954c0.253,14.394,0.965,39.185,2.968,63.775
	c1.823,22.388,4.354,40.313,7.521,53.274c0.03,0.122,0.061,0.246,0.091,0.368c-10.786,11.108-27.654,19.517-43.059,21.442
	c-4.384,0.548-7.494,4.547-6.946,8.931c0.506,4.048,3.952,7.009,7.928,7.009c0.331,0,0.666-0.021,1.002-0.063
	c16.483-2.061,33.718-9.825,46.726-20.771c2.135,4.319,4.829,8.064,8.282,10.377v66.455c0,4.418,3.582,8,8,8c4.418,0,8-3.582,8-8
	v-66.455c3.453-2.313,6.146-6.058,8.282-10.377c13.008,10.945,30.243,18.71,46.726,20.771c0.337,0.042,0.671,0.063,1.002,0.063
	c3.976,0,7.422-2.961,7.928-7.009c0.548-4.384-2.562-8.383-6.946-8.931c-15.404-1.926-32.273-10.334-43.059-21.442
	c0.03-0.122,0.062-0.246,0.091-0.368c3.167-12.962,5.698-30.887,7.521-53.274c2.003-24.591,2.715-49.382,2.968-63.775l19.908,9.954
	c1.111,0.556,2.335,0.845,3.578,0.845h8c4.418,0,8-3.582,8-8s-3.582-8-8-8h-6.111l-21.736-10.867
	c5.677-10.766,9.606-24.174,11.13-39.127l19.247-6.416c4.191-1.397,6.457-5.928,5.06-10.12c-1.397-4.19-5.929-6.455-10.119-5.06
	l-13.516,4.505c-0.629-28.972-10.083-53.542-24.131-66.673l71.333-142.664C353.131,7.627,351.529,2.821,347.578,0.846z
	 M234.709,176.975c5.993-10.787,13.753-16.974,21.291-16.974s15.298,6.187,21.291,16.974c0.676,1.216,1.313,2.484,1.928,3.779
	c-6.884-3.047-14.811-4.753-23.219-4.753c-8.4,0-16.334,1.713-23.228,4.771C233.391,179.471,234.03,178.196,234.709,176.975z
	 M256,423.369c-0.802-0.987-2.115-3.082-3.665-7.368h7.33C258.115,420.287,256.802,422.382,256,423.369z M263.895,400.001h-14.562
	c-0.412,0-0.813,0.041-1.208,0.101c-0.494-2.445-0.989-5.14-1.479-8.101h18.707C264.87,394.921,264.382,397.582,263.895,400.001z
	 M267.594,376.001h-23.188c-0.573-4.835-1.123-10.154-1.638-16h26.464C268.717,365.847,268.167,371.165,267.594,376.001z
	 M270.457,344.001h-28.914c-0.359-5.449-0.66-10.823-0.912-16h30.738C271.117,333.177,270.816,338.551,270.457,344.001z
	 M272.026,312.001h-32.053c-0.155-4.578-0.272-8.825-0.36-12.623c5.093,2.991,10.604,4.623,16.387,4.623
	c5.783,0,11.294-1.632,16.387-4.624C272.299,303.175,272.182,307.422,272.026,312.001z M272.845,276.423
	c-0.367,0.734-0.609,1.498-0.737,2.268c-4.971,5.992-10.597,9.311-16.107,9.311s-11.137-3.318-16.107-9.311
	c-0.128-0.77-0.37-1.533-0.737-2.268c-0.26-0.521-0.572-0.997-0.922-1.434c1.87-6.284,9.118-10.988,17.767-10.988
	c8.649,0,15.896,4.704,17.767,10.988C273.417,275.426,273.105,275.902,272.845,276.423z M282.522,259.11
	c-6.286-6.775-15.839-11.109-26.522-11.109s-20.236,4.334-26.522,11.109c-1.425-4.151-2.587-8.568-3.466-13.19
	c0.254-9.397,14.153-17.586,29.988-17.586s29.734,8.188,29.988,17.586C285.109,250.542,283.947,254.959,282.522,259.11z
	 M286.973,209.977c0.085,0.312,0.208,0.601,0.327,0.892c0.381,3.518,0.601,7.121,0.669,10.778
	c-8.219-5.792-19.429-9.313-31.969-9.313s-23.75,3.521-31.969,9.313c0.069-3.675,0.29-7.296,0.675-10.829
	c0.139-0.32,0.265-0.648,0.363-0.993c2.939-10.327,15.948-17.823,30.931-17.823C270.851,192.001,284.166,199.728,286.973,209.977z"
	/>
</svg>