<?xml version="1.0" encoding="UTF-8"?>
<!-- Created with Inkscape (http://www.inkscape.org/) -->
<svg width="400" height="100" version="1.1" viewBox="0 0 105.83 26.458" xml:space="preserve" xmlns="http://www.w3.org/2000/svg"><defs/><g transform="translate(-23.548 -69.056)"><g transform="matrix(.23835 0 0 .23835 32.234 42.404)"><rect x="-37.5" y="-37.5" width="450" height="450" fill="#fff"/><rect x="-37.5" y="-37.5" width="450" height="450" fill="#fff"/><rect x="-37.5" y="-37.5" width="450" height="450" fill="#ffe600"/><g fill="#1e1e1e"><g transform="translate(22.351 201.15)"/><g transform="translate(39.72 198.89)"><path d="m27.453-52.531 0.25 0.03125c1.1445 0.5 2.1602 1.0938 3.0469 1.7812 0.89453 0.67969 1.7266 1.4141 2.5 2.2031 0.78125 0.78125 1.4297 1.6641 1.9531 2.6406 2.1133 3.6992 1.2734 8.2656-2.5156 13.703-1.6055 2.2812-3.4805 4.2969-5.625 6.0469 0.63281 0.35547 1.2266 0.59375 1.7812 0.71875 0.5625 0.11719 1.3672 0.375 2.4219 0.78125 1.0508 0.39844 1.8203 1.3125 2.3125 2.75 0.48828 1.4375 0.62891 3.1016 0.42188 4.9844-0.21094 1.8867-0.77344 3.875-1.6875 5.9688-0.91797 2.0859-2.2148 4.0156-3.8906 5.7969-3.8047 4.0859-8.543 6.2109-14.219 6.3906-0.8125 0.10156-1.3359 0.10156-1.5625 0-0.23047-0.09375-0.41797-0.17188-0.5625-0.23438-0.13672-0.0625-0.41797-0.09375-0.84375-0.09375-0.96094 0.98828-2.1055 1.6758-3.4375 2.0625-1.3359 0.39453-2.6367 0.45703-3.9062 0.1875-1.2734-0.26172-2.3906-0.85156-3.3594-1.7656-0.96875-0.91797-1.5547-2.207-1.7656-3.875-0.00781-1.1133 0.09375-2.0078 0.3125-2.6875-0.1875-0.36328-0.31641-0.81641-0.39062-1.3594 0.44922-7.8945 1.0469-13.973 1.7969-18.234 1.5312-8.4688 3.5352-14.969 6.0156-19.5 2.0195-3.8008 5.1562-6.5 9.4062-8.0938 4.0938-1.5195 7.9414-1.5859 11.547-0.20312zm-14.062 47.156c0.5-0.19531 0.92969-0.28516 1.2969-0.26562 0.375 0.011719 0.80469-0.054687 1.2969-0.20312 1.2266-0.28906 2.7891-1.2734 4.6875-2.9531 1.1328-1.4883 1.6641-2.875 1.5938-4.1562-0.07422-1.2891-0.37109-2.0859-0.89062-2.3906-0.51172-0.30078-1.1641-0.39844-1.9531-0.29688-0.78125 0.10547-1.6406 0.33984-2.5781 0.70312-0.92969 0.35547-1.8281 0.60938-2.7031 0.76562l0.01563 0.10938c-0.10547 0.89844-0.22656 1.6797-0.35938 2.3438-0.125 0.65625-0.24219 1.293-0.34375 1.9062-0.19922 1.4609-0.30469 2.9492-0.3125 4.4688zm7.5469-34.75c-1.3047 0-2.5586 1.1797-3.7656 3.5312-0.75 1.4922-1.1992 3.6523-1.3438 6.4844 0.83203-0.5 1.6641-0.94141 2.5-1.3281 0.83203-0.39453 1.6133-0.8125 2.3438-1.25 1.7695-1.0508 2.9883-2.2031 3.6562-3.4531 0.78906-1.25 0.96094-2.2266 0.51562-2.9375-0.59375-0.61328-1.5078-1.125-2.7344-1.5312-0.29297 0.35547-0.68359 0.51562-1.1719 0.48438zm-0.98438-0.125 0.1875-0.03125z"/></g><g transform="translate(74.52 194.35)"><path d="m15.891-49.094 0.01563 0.14062c0 0.04297 0.0078 0.0625 0.03125 0.0625 0.01953 0 0.03516 0.02344 0.04687 0.0625l0.01563 0.125 0.0625-0.01563 0.5 0.96875c0.60156 1.1875 0 5.168-1.8125 11.938-1.918 7.2109-2.5156 12.715-1.7969 16.516 0.8125 2.6797 2.8008 0.19531 5.9688-7.4531 2.5078-5.957 4.8477-12.43 7.0156-19.422 0.26953-0.94531 0.55078-1.9258 0.84375-2.9375 0.30078-1.0078 0.72656-1.875 1.2812-2.5938 1.207-1.7188 2.8633-2.3477 4.9688-1.8906 0.5625-0.88281 1.2852-1.5352 2.1719-1.9531 0.88281-0.42578 1.75-0.60938 2.5938-0.54688s1.6016 0.36719 2.2812 0.90625c0.67578 0.54297 1.1016 1.3242 1.2812 2.3438 0.23828 0.83594 0.06641 2.9141-0.51562 6.2344-0.58594 3.3125-1.1328 6.3438-1.6406 9.0938-0.51172 2.75-1.0117 5.7461-1.5 8.9844-1.2109 7.6484-2.0273 14.805-2.4531 21.469 0.13281 1.3672-0.30469 2.5703-1.3125 3.6094-1.0117 1.043-2.1953 1.793-3.5469 2.25-1.3438 0.46094-2.6641 0.57812-3.9531 0.35938-1.543-0.22656-2.4648-1.1914-2.7656-2.8906-0.0625-0.46875-0.14844-0.92969-0.25-1.3906 0.26953 1.4375-0.60938 2.8086-2.6406 4.1094-0.5625 0.375-1.0781 0.72656-1.5469 1.0469-2.875 1.2812-6.0312 1.5-9.4688 0.65625-1.6172-0.44921-3.1016-1.1328-4.4531-2.0625-1.3555-0.92578-2.3711-2.1094-3.0469-3.5469-2.0938-4.5625-2.625-10.848-1.5938-18.859 0.40625-3.4375 1.0195-6.8125 1.8438-10.125 0.82031-3.3125 1.4297-5.7031 1.8281-7.1719 0.39453-1.4766 0.6875-2.5 0.875-3.0625 0.1875-0.57031 0.39844-1.1328 0.64062-1.6875 0.53125-1.5391 1.0195-2.5977 1.4688-3.1719l0.65625-0.8125c0.070313-0.09375 0.14844-0.15625 0.23438-0.1875 0.09375-0.03125 0.19531-0.09375 0.3125-0.1875 0.3125-0.26953 0.64844-0.46875 1.0156-0.59375l0.875-0.32812 0.39062-0.04687c1.207-0.32031 2.3047-0.20312 3.2969 0.35938 0 0.04297 0.03906 0.05859 0.125 0.04687l0.57812 0.39062 0.21875 0.15625 0.21875 0.25c0 0.03125 0.0078 0.04687 0.03125 0.04687 0.01953-0.0078 0.03516 0.0078 0.04687 0.04687l0.0625 0.0625 0.01563 0.125c0.03906-0.0078 0.06641 0.0078 0.07813 0.04687v0.0625c0.05078 0.05469 0.09766 0.07422 0.14062 0.0625l0.01563 0.0625c0 0.04297 0.0078 0.0625 0.03125 0.0625 0.01953 0 0.03125 0.01172 0.03125 0.03125 0.0078 0.02344 0.03516 0.04687 0.07813 0.07813l0.01563 0.0625c0 0.04297 0.03125 0.07813 0.09375 0.10938zm7.25 42.312-0.01563-0.1875c-0.04297 0.054688-0.04297 0.23047 0 0.53125-0.02344-0.13281-0.01172-0.22656 0.03125-0.28125z"/></g><g transform="translate(115.71 188.99)"><path d="m19.062-51.5c5.9688-2.0391 10.836-1.8945 14.609 0.4375 1.7891 1.1055 3.1133 2.8828 3.9688 5.3281 0.86328 2.4375 0.94531 5.2812 0.25 8.5312-0.28125 1.5117-0.94922 2.7031-2 3.5781-1.0547 0.86719-2.1836 1.4336-3.3906 1.7031-1.2109 0.27344-2.3281 0.26562-3.3594-0.01563-1.0312-0.28906-1.6367-0.8125-1.8125-1.5625l-0.75-1.1875c-1.2188-1.4062-3.0117-1.3672-5.375 0.10938-2.043 1.25-3.9844 3.2305-5.8281 5.9375-1.9688 2.9062-3.1641 5.4492-3.5781 7.625-0.46094 2.3867-0.64062 3.9453-0.54688 4.6719 0.125 1.6367 0.88281 3.0156 2.2812 4.1406 1.9453 0.91797 3.8047 1.2031 5.5781 0.85938 1.7695-0.34375 3.3047-0.95703 4.6094-1.8438 1.3125-0.88281 2.3594-1.832 3.1406-2.8438 0.78906-1.0195 1.1602-1.7188 1.1094-2.0938 0.09375-0.26953 0.1875-0.53906 0.28125-0.8125 0.10156-0.26953 0.17578-0.53516 0.21875-0.79688-0.16797 0.02344-0.125 0.0078 0.125-0.04687 0.25-0.0625 0.3125-0.07031 0.1875-0.03125-0.125 0.04297-0.05859 0.05859 0.20312 0.04687l0.40625 0.07813c-1.8359 2.1562-3.8086 2.8125-5.9219 1.9688-0.82422-0.38281-1.5703-0.80078-2.2344-1.25-0.66797-0.45703-1.2578-0.62891-1.7656-0.51562-1-0.39453-1.3398-1.3633-1.0156-2.9062 0.125-0.63281 0.44141-1.2539 0.95312-1.8594 0.50781-0.60156 1.1953-1.0703 2.0625-1.4062 4.0078-2.375 7.8906-3.3125 11.641-2.8125 1.6641 0.21094 2.8945 0.92969 3.6875 2.1562 0.78906 1.2188 1.2422 2.6484 1.3594 4.2812 0.125 1.625-0.01172 3.3086-0.40625 5.0469-0.39844 1.7305-0.89062 3.1406-1.4844 4.2344s-1.4531 2.4141-2.5781 3.9531c-1.1172 1.5312-2.5703 3.0586-4.3594 4.5781-4.4062 3.7422-9.3711 5.9062-14.891 6.5-7.9688 0.89453-13.09-1.75-15.359-7.9375-0.75-1.9883-1.2695-4.2578-1.5625-6.8125-0.51953-7.457 0.79688-14.66 3.9531-21.609 1.5078-3.3125 3.6953-6.6719 6.5625-10.078 1.7891-2.1016 3.9062-3.8047 6.3438-5.1094 1.2891-0.72656 2.8516-1.4727 4.6875-2.2344z"/></g><g transform="translate(153.96 184.01)"/><g transform="translate(171.32 181.75)"><path d="m19.062-51.5c5.9688-2.0391 10.836-1.8945 14.609 0.4375 1.7891 1.1055 3.1133 2.8828 3.9688 5.3281 0.86328 2.4375 0.94531 5.2812 0.25 8.5312-0.28125 1.5117-0.94922 2.7031-2 3.5781-1.0547 0.86719-2.1836 1.4336-3.3906 1.7031-1.2109 0.27344-2.3281 0.26562-3.3594-0.01563-1.0312-0.28906-1.6367-0.8125-1.8125-1.5625l-0.75-1.1875c-1.2188-1.4062-3.0117-1.3672-5.375 0.10938-2.043 1.25-3.9844 3.2305-5.8281 5.9375-1.9688 2.9062-3.1641 5.4492-3.5781 7.625-0.46094 2.3867-0.64062 3.9453-0.54688 4.6719 0.125 1.6367 0.88281 3.0156 2.2812 4.1406 1.9453 0.91797 3.8047 1.2031 5.5781 0.85938 1.7695-0.34375 3.3047-0.95703 4.6094-1.8438 1.3125-0.88281 2.3594-1.832 3.1406-2.8438 0.78906-1.0195 1.1602-1.7188 1.1094-2.0938 0.09375-0.26953 0.1875-0.53906 0.28125-0.8125 0.10156-0.26953 0.17578-0.53516 0.21875-0.79688-0.16797 0.02344-0.125 0.0078 0.125-0.04687 0.25-0.0625 0.3125-0.07031 0.1875-0.03125-0.125 0.04297-0.05859 0.05859 0.20312 0.04687l0.40625 0.07813c-1.8359 2.1562-3.8086 2.8125-5.9219 1.9688-0.82422-0.38281-1.5703-0.80078-2.2344-1.25-0.66797-0.45703-1.2578-0.62891-1.7656-0.51562-1-0.39453-1.3398-1.3633-1.0156-2.9062 0.125-0.63281 0.44141-1.2539 0.95312-1.8594 0.50781-0.60156 1.1953-1.0703 2.0625-1.4062 4.0078-2.375 7.8906-3.3125 11.641-2.8125 1.6641 0.21094 2.8945 0.92969 3.6875 2.1562 0.78906 1.2188 1.2422 2.6484 1.3594 4.2812 0.125 1.625-0.01172 3.3086-0.40625 5.0469-0.39844 1.7305-0.89062 3.1406-1.4844 4.2344s-1.4531 2.4141-2.5781 3.9531c-1.1172 1.5312-2.5703 3.0586-4.3594 4.5781-4.4062 3.7422-9.3711 5.9062-14.891 6.5-7.9688 0.89453-13.09-1.75-15.359-7.9375-0.75-1.9883-1.2695-4.2578-1.5625-6.8125-0.51953-7.457 0.79688-14.66 3.9531-21.609 1.5078-3.3125 3.6953-6.6719 6.5625-10.078 1.7891-2.1016 3.9062-3.8047 6.3438-5.1094 1.2891-0.72656 2.8516-1.4727 4.6875-2.2344z"/></g><g transform="translate(209.57 176.76)"><path d="m15.891-49.094 0.01563 0.14062c0 0.04297 0.0078 0.0625 0.03125 0.0625 0.01953 0 0.03516 0.02344 0.04687 0.0625l0.01563 0.125 0.0625-0.01563 0.5 0.96875c0.60156 1.1875 0 5.168-1.8125 11.938-1.918 7.2109-2.5156 12.715-1.7969 16.516 0.8125 2.6797 2.8008 0.19531 5.9688-7.4531 2.5078-5.957 4.8477-12.43 7.0156-19.422 0.26953-0.94531 0.55078-1.9258 0.84375-2.9375 0.30078-1.0078 0.72656-1.875 1.2812-2.5938 1.207-1.7188 2.8633-2.3477 4.9688-1.8906 0.5625-0.88281 1.2852-1.5352 2.1719-1.9531 0.88281-0.42578 1.75-0.60938 2.5938-0.54688s1.6016 0.36719 2.2812 0.90625c0.67578 0.54297 1.1016 1.3242 1.2812 2.3438 0.23828 0.83594 0.06641 2.9141-0.51562 6.2344-0.58594 3.3125-1.1328 6.3438-1.6406 9.0938-0.51172 2.75-1.0117 5.7461-1.5 8.9844-1.2109 7.6484-2.0273 14.805-2.4531 21.469 0.13281 1.3672-0.30469 2.5703-1.3125 3.6094-1.0117 1.043-2.1953 1.793-3.5469 2.25-1.3438 0.46094-2.6641 0.57812-3.9531 0.35938-1.543-0.22656-2.4648-1.1914-2.7656-2.8906-0.0625-0.46875-0.14844-0.92969-0.25-1.3906 0.26953 1.4375-0.60938 2.8086-2.6406 4.1094-0.5625 0.375-1.0781 0.72656-1.5469 1.0469-2.875 1.2812-6.0312 1.5-9.4688 0.65625-1.6172-0.44921-3.1016-1.1328-4.4531-2.0625-1.3555-0.92578-2.3711-2.1094-3.0469-3.5469-2.0938-4.5625-2.625-10.848-1.5938-18.859 0.40625-3.4375 1.0195-6.8125 1.8438-10.125 0.82031-3.3125 1.4297-5.7031 1.8281-7.1719 0.39453-1.4766 0.6875-2.5 0.875-3.0625 0.1875-0.57031 0.39844-1.1328 0.64062-1.6875 0.53125-1.5391 1.0195-2.5977 1.4688-3.1719l0.65625-0.8125c0.070313-0.09375 0.14844-0.15625 0.23438-0.1875 0.09375-0.03125 0.19531-0.09375 0.3125-0.1875 0.3125-0.26953 0.64844-0.46875 1.0156-0.59375l0.875-0.32812 0.39062-0.04687c1.207-0.32031 2.3047-0.20312 3.2969 0.35938 0 0.04297 0.03906 0.05859 0.125 0.04687l0.57812 0.39062 0.21875 0.15625 0.21875 0.25c0 0.03125 0.0078 0.04687 0.03125 0.04687 0.01953-0.0078 0.03516 0.0078 0.04687 0.04687l0.0625 0.0625 0.01563 0.125c0.03906-0.0078 0.06641 0.0078 0.07813 0.04687v0.0625c0.05078 0.05469 0.09766 0.07422 0.14062 0.0625l0.01563 0.0625c0 0.04297 0.0078 0.0625 0.03125 0.0625 0.01953 0 0.03125 0.01172 0.03125 0.03125 0.0078 0.02344 0.03516 0.04687 0.07813 0.07813l0.01563 0.0625c0 0.04297 0.03125 0.07813 0.09375 0.10938zm7.25 42.312-0.01563-0.1875c-0.04297 0.054688-0.04297 0.23047 0 0.53125-0.02344-0.13281-0.01172-0.22656 0.03125-0.28125z"/></g><g transform="translate(250.76 171.4)"><path d="m4.5156-25.203c-1.543-6.0703-2.4961-11.051-2.8594-14.938-0.32422-1.8203 0.19141-3.6641 1.5469-5.5312 1.2812-1.7812 2.7227-2.8594 4.3281-3.2344 1.7695-0.35156 3.0469 0.49609 3.8281 2.5469 0.48828 1.1562 1.0938 2.4922 1.8125 4 0.72656 1.5 1.4375 3.0938 2.125 4.7812 0.38281-0.69531 0.98438-1.9219 1.7969-3.6719s1.582-3.3203 2.3125-4.7188c1.7578-3.3828 3.3906-5.8008 4.8906-7.25 1.5391-0.85156 2.9102-1.2188 4.1094-1.0938 1.207 0.125 2.1133 0.45312 2.7188 0.98438 0.61328 0.52344 0.92969 1.3672 0.95312 2.5312 0.25781 2.6992-1.2305 7.1797-4.4688 13.438-0.77344 1.4492-1.5273 3.1094-2.2656 4.9844-0.73047 1.8672-1.5859 3.9531-2.5625 6.2656-0.96875 2.3125-1.8867 4.6055-2.75 6.875-2.0234 5.1562-3.4961 10-4.4219 14.531 0.03125-0.09375 0.21094-0.019531 0.54688 0.21875 0.34375 0.24219 0.67578 0.60547 1 1.0938 0.84375 1.1797 0.91406 2.2461 0.21875 3.2031-1.7617 2.3945-4.1367 3.9219-7.125 4.5781-2.75 0.5625-5.2031 0.35938-7.3594-0.60938-2.1484-0.89844-2.9883-2.2344-2.5312-4.0156l-0.20312 0.015625c0.625-2.5391 1.3906-4.9609 2.2969-7.2656 0.91406-2.3008 1.8633-4.6914 2.8438-7.1719l2.2188-5.4844c-0.71094 0.27344-1.375-0.16016-2-1.2969-0.46094-0.92578-0.79297-2.1797-1-3.7656z"/></g><g transform="translate(279.56 167.65)"><path d="m11.078 2.3281c-2.1562 0.36328-4.1797 0.35156-6.0625-0.03125-1.8867-0.375-3.4648-1.0234-4.7344-1.9375s-2.1445-2.0664-2.625-3.4531c-0.48828-1.3828-0.42188-2.8789 0.20312-4.4844 0.86719-1.9258 3-2.75 6.4062-2.4688 2.5938 0.19922 4.3672 0.25781 5.3281 0.17188 0.95703-0.082031 1.7578-0.32031 2.4062-0.71875 2.9688-1.4258 4.5664-2.7539 4.7969-3.9844 0.14453-0.94531-0.54297-1.9219-2.0625-2.9219-0.625-0.42578-1.3125-0.84766-2.0625-1.2656-0.74219-0.42578-1.375-0.875-1.9062-1.3438-2.3359-1.2891-4.2461-2.8906-5.7344-4.7969-1.4805-1.9062-2.2734-4.082-2.375-6.5312-0.10547-2.457 0.035156-4.5234 0.42188-6.2031 0.39453-1.6758 0.95703-3.1875 1.6875-4.5312 1.2891-2.3828 3.1016-4.4141 5.4375-6.0938 2.707-1.875 4.8984-3.1328 6.5781-3.7812 3.3633-1.2188 6.8516-1.7344 10.469-1.5469 1.207 0.04297 2.2734 0.30859 3.2031 0.79688 0.92578 0.48047 1.8594 0.99219 2.7969 1.5312 1.6953 1.293 2.2539 2.7578 1.6719 4.3906-0.19922 0.71094-0.59375 1.3203-1.1875 1.8281-0.58594 0.5-1.2305 0.82422-1.9375 0.96875 0.22656 1.1367 0.125 2.0156-0.3125 2.6406-0.85547 1.1055-2.4766 1.9648-4.8594 2.5781-3.5234 0.19922-5.8555 0.69922-7 1.5-1.3555 0.94922-1.6719 2.6836-0.95312 5.2031 0.15625 0.53125 0.57812 1.0586 1.2656 1.5781 0.69531 0.51172 1.5039 1.0547 2.4219 1.625 0.91406 0.5625 1.8828 1.2148 2.9062 1.9531 1.0312 0.74219 1.957 1.6172 2.7812 2.625 2.8945 3.6172 3.3047 8.2188 1.2344 13.812-1.543 4.1797-4.6562 7.5703-9.3438 10.172-2.418 1.3516-5.3711 2.2578-8.8594 2.7188z"/></g></g><g fill="#222"><g transform="translate(163.61 218.97)"><path d="m13.469-7.9844c-0.65625 0.65625-1.375 1.1719-2.1562 1.5469-0.78125 0.36719-1.5781 0.54688-2.3906 0.54688-0.8125-0.00781-1.5469-0.25781-2.2031-0.75-0.28125 1.7305-0.40625 3.418-0.375 5.0625-0.03125 0.3125-0.125 0.60156-0.28125 0.85938-0.1875 1.0391-0.82422 1.8047-1.9062 2.2969-1.0742 0.46875-2.1211 0.55469-3.1406 0.26562-0.48047-0.14844-0.89844-0.39062-1.25-0.73438-0.35156-0.33594-0.56641-0.78125-0.64062-1.3438 0.64844-4.6328 1.3633-8.457 2.1562-11.469 0.17578-0.63281 0.31641-1.1484 0.42188-1.5469 0.11328-0.39453 0.21094-0.72656 0.29688-1 0.09375-0.28125 0.17578-0.52344 0.25-0.73438 0.070312-0.20703 0.16406-0.44141 0.28125-0.70312 0.26953-0.61328 0.56641-1.3203 0.89062-2.125 0.32031-0.8125 0.60938-1.4258 0.85938-1.8438 0.25781-0.42578 0.54688-0.79688 0.85938-1.1094s0.65625-0.61719 1.0312-0.92188c0.38281-0.3125 0.86328-0.70703 1.4375-1.1875 0.58203-0.47656 1.2227-0.80469 1.9219-0.98438 0.69531-0.1875 1.3906-0.22266 2.0781-0.10938 1.4375 0.23047 2.5859 1.043 3.4531 2.4375 0.75 1.3047 1.1016 3.1406 1.0625 5.5156-0.08594 3.6367-0.96875 6.3125-2.6562 8.0312zm-6.1719-1.6719c1.4688-0.53906 2.3906-1.6797 2.7656-3.4219 0.28906-1.457 0.16016-3.0547-0.39062-4.7969-0.3125 0.80469-0.58984 1.6172-0.82812 2.4375-0.24219 0.82422-0.45312 1.5703-0.64062 2.2344-0.41797 1.4492-0.71875 2.6328-0.90625 3.5469z"/></g><g transform="translate(179.95 216.66)"><path d="m5.7969-4.4062c1.1016-0.039062 1.9219-0.097656 2.4531-0.17188 0.53125-0.070313 1.3203-0.26562 2.375-0.57812 0.35156 0.074219 0.57031 0.1875 0.65625 0.34375 0.08203 0.15625 0.125 0.32812 0.125 0.51562 0.0078 0.1875 0.03906 0.35938 0.09375 0.51562 0.05078 0.15625 0.25 0.27344 0.59375 0.34375 0.16406 0.023438 0.23828 0.17969 0.21875 0.46875-0.02344 0.28125-0.13672 0.58984-0.34375 0.92188-0.49219 0.89844-1.1367 1.5625-1.9375 2-1.2812 0.51953-2.3047 0.85938-3.0625 1.0156-1.25 0.28125-2.6367 0.42969-4.1562 0.45312-1.6797-0.0625-2.5586-0.63281-2.6406-1.7031-0.55078-3.9062-0.25781-7.9453 0.875-12.125 0.39453-1.3633 0.84375-2.8047 1.3438-4.3281 0.11328-0.3125 0.15625-0.65625 0.125-1.0312-0.023437-0.375-0.046875-0.73828-0.078125-1.0938-0.03125-0.35156-0.023438-0.67578 0.03125-0.96875 0.0625-0.30078 0.22266-0.52344 0.48438-0.67188 3.6562-2.0938 6.6406-3.1172 8.9531-3.0781 0.76953-0.09375 1.3164 0.10156 1.6406 0.57812 0.32031 0.48047 0.42969 1.0469 0.32812 1.7031-0.10547 0.64844-0.40234 1.2891-0.89062 1.9219-0.49219 0.63672-1.1523 1.0859-1.9844 1.3438-1.0547 0.48047-1.6953 0.79297-1.9219 0.9375-0.4375 0.28125-0.73047 0.62109-0.875 1.0156-0.21094 0.46094-0.39844 0.89062-0.5625 1.2969-0.16797 0.39844-0.27344 0.8125-0.3125 1.25l-0.015625 0.625c0.375 0.11719 0.8125 0.10547 1.3125-0.03125 0.5-0.13281 0.96094-0.26562 1.3906-0.39062 0.4375-0.125 0.78906-0.17578 1.0625-0.15625 0.28125 0.01172 0.37891 0.27734 0.29688 0.79688-0.08594 0.51172-0.29688 1.1055-0.64062 1.7812-0.33594 0.67969-0.85938 1.2109-1.5781 1.5938-0.46875 0.16797-0.79297 0.28906-0.96875 0.35938-0.17969 0.074219-0.30859 0.12109-0.39062 0.14062-0.125 0.042969-0.49609 0.125-1.1094 0.25-0.65625 1.6055-1.0234 2.8281-1.0938 3.6719-0.03125 0.34375 0.035156 0.50781 0.20312 0.48438z"/></g><g transform="translate(194 214.67)"><path d="m4.8594 0.96875c-0.94922 0.16406-1.8398 0.16406-2.6719 0-0.82422-0.15625-1.5156-0.43359-2.0781-0.82812-0.55078-0.38281-0.9375-0.87891-1.1562-1.4844-0.21875-0.60156-0.19141-1.2578 0.078125-1.9688 0.36719-0.84375 1.2891-1.207 2.7812-1.0938 1.125 0.0625 1.8984 0.074219 2.3281 0.03125 0.4375-0.039062 0.78516-0.14844 1.0469-0.32812 1.3008-0.625 2-1.2109 2.0938-1.7656 0.0625-0.39453-0.25-0.81641-0.9375-1.2656-0.25-0.1875-0.54688-0.36719-0.89062-0.54688-0.33594-0.1875-0.62109-0.375-0.85938-0.5625-1.0234-0.55078-1.8594-1.2422-2.5156-2.0781-0.65625-0.83203-1.0117-1.7852-1.0625-2.8594-0.054687-1.0703 0-1.9727 0.15625-2.7031 0.16406-0.73828 0.40625-1.4062 0.71875-2 0.5625-1.0391 1.3438-1.9375 2.3438-2.6875 1.1758-0.83203 2.1289-1.3906 2.8594-1.6719 1.4688-0.55078 2.9922-0.79688 4.5781-0.73438 0.53125 0.02344 1 0.13672 1.4062 0.34375 0.40625 0.19922 0.81641 0.41406 1.2344 0.64062 0.73828 0.5625 0.98828 1.2031 0.75 1.9219-0.08594 0.30469-0.25781 0.57031-0.51562 0.79688-0.25 0.23047-0.53125 0.375-0.84375 0.4375 0.11328 0.5 0.07031 0.88672-0.125 1.1562-0.36719 0.5-1.0703 0.88672-2.1094 1.1562-1.543 0.11719-2.5625 0.34375-3.0625 0.6875-0.59375 0.42969-0.72656 1.1836-0.39062 2.2656 0.070313 0.25 0.25781 0.48438 0.5625 0.70312 0.3125 0.21094 0.67188 0.44531 1.0781 0.70312 0.40625 0.25 0.83203 0.53125 1.2812 0.84375 0.44531 0.3125 0.85156 0.69531 1.2188 1.1406 1.2812 1.5625 1.4844 3.5703 0.60938 6.0156-0.66797 1.8359-2.0117 3.3281-4.0312 4.4844-1.0547 0.61328-2.3438 1.0312-3.875 1.25z"/></g><g transform="translate(208.83 212.58)"><path d="m8.7031-8.5312c-0.30469 1.5312-0.62109 3.0078-0.95312 4.4219-0.33594 1.418-0.625 2.5-0.875 3.25-0.24219 0.74219-0.47656 1.2539-0.70312 1.5469-0.21875 0.30078-0.46094 0.51562-0.71875 0.64062-0.25 0.13281-0.51562 0.21094-0.79688 0.23438-0.27344 0.019531-0.54297 0.039062-0.8125 0.0625-1.5938-0.023438-2.2344-1.0781-1.9219-3.1719 0.15625-1.6562 0.28125-3.0078 0.375-4.0625 0.10156-1.0508 0.19141-1.9141 0.26562-2.5938 0.070312-0.67578 0.12891-1.2383 0.17188-1.6875 0.039063-0.45703 0.09375-0.91016 0.15625-1.3594 0.070313-0.44531 0.17188-0.95312 0.29688-1.5156 0.125-0.57031 0.27344-1.3281 0.45312-2.2656-0.6875 0.1875-1.3281 0.20312-1.9219 0.04687-0.86719-0.22656-1.3086-0.94141-1.3281-2.1406 0-0.55078 0.21875-1.0938 0.65625-1.625 0.22656-0.28125 0.5-0.58594 0.8125-0.92188 0.63281-0.67578 1.9844-1.4922 4.0469-2.4531 2.1445-0.97656 4.0234-1.5625 5.6406-1.75 0.40625-0.13281 0.84766-0.14453 1.3281-0.03125 0.48828 0.11719 0.89453 0.30469 1.2188 0.5625 0.32031 0.25 0.50781 0.55469 0.5625 0.90625 0.05078 0.34375-0.13672 0.6875-0.5625 1.0312-0.1875 0.1875-0.30859 0.46094-0.35938 0.8125-0.04297 0.35547-0.09375 0.73438-0.15625 1.1406-0.05469 0.39844-0.16797 0.77344-0.34375 1.125-0.16797 0.34375-0.47656 0.57422-0.92188 0.6875-0.23047 0.16797-0.5625 0.3125-1 0.4375-0.42969 0.11719-0.71094 0.19922-0.84375 0.25-0.13672 0.04297-0.20312 0.10156-0.20312 0.17188-0.19922 1.043-0.43359 2.2969-0.70312 3.7656-0.26172 1.4609-0.54688 2.9531-0.85938 4.4844zm-4.8125-6.8438c-0.042969 0.01172-0.0625 0.02344-0.0625 0.03125 0 0 0.019531-0.0039 0.0625-0.01563z"/></g><g transform="translate(222.27 210.68)"/><g transform="translate(230.41 209.53)"><path d="m10.562-15.656c-0.07422-0.5625-0.30859-0.81641-0.70312-0.76562-0.14844 0.02344-0.32031 0.08594-0.51562 0.1875-0.1875 0.10547-0.37109 0.19922-0.54688 0.28125-0.63672 0.46875-1.1172 0.95312-1.4375 1.4531-0.3125 0.49219-0.63281 1.0312-0.95312 1.625-0.32422 0.58594-0.57812 1.2031-0.76562 1.8594s-0.32031 1.2656-0.39062 1.8281c-0.27344 2.0547 0.11719 3.3672 1.1719 3.9375 0.42578 0.21094 0.85938 0.27734 1.2969 0.20312 0.4375-0.070313 0.77344-0.20703 1.0156-0.40625 0.25-0.19531 0.49219-0.39062 0.73438-0.57812 0.23828-0.1875 0.52344-0.33594 0.85938-0.45312 0.34375-0.11328 0.78125-0.125 1.3125-0.03125 0.53906 0.085937 0.84766 0.25781 0.92188 0.51562 0.07031 0.25 0.10938 0.52344 0.10938 0.8125 0.0078 0.28125 0.03906 0.53125 0.09375 0.75 0.0625 0.21094 0.27344 0.3125 0.64062 0.3125 0.41406 0.40625 0.27344 0.98047-0.42188 1.7188-0.1875 0.19922-0.36719 0.38672-0.53125 0.5625-1.4492 1.25-3.0703 2.0547-4.8594 2.4219-1.125 0.23828-2.3594 0.20312-3.7031-0.10938-2.0312-0.44922-3.3438-1.9219-3.9375-4.4219-0.64453-2.2891-0.69141-4.7578-0.14062-7.4062 0.45703-2.2266 1.3359-4.3516 2.6406-6.375 1.1641-1.8516 2.3906-3.125 3.6719-3.8125 1.4883-1.0625 3.1914-1.6328 5.1094-1.7188 2.0078-0.01953 3.4258 0.64062 4.25 1.9844 0.8125 1.3555 0.95703 3.0938 0.4375 5.2188-0.1875 0.74219-0.64062 1.3711-1.3594 1.8906-0.625 0.46094-1.3281 0.74609-2.1094 0.85938-0.77344 0.11719-1.3086-0.05469-1.6094-0.51562-0.29297-0.46875-0.38672-1.0781-0.28125-1.8281z"/></g><g transform="translate(245.83 207.35)"><path d="m3.0469-19.266c0.98828-1.5 2.1719-2.5195 3.5469-3.0625 0.95703-0.375 1.8945-0.47266 2.8125-0.29688 0.58203-0.8125 1.4375-1.1914 2.5625-1.1406 1.0312 0.05469 1.9727 0.5 2.8281 1.3438 0.03906 0.11719 0.14453 0.29688 0.3125 0.54688 0.16406 0.24219 0.32031 0.51562 0.46875 0.82812 1.0938 1.7812 1.5039 4.2617 1.2344 7.4375-0.3125 3.9375-1.3711 7.3984-3.1719 10.375-0.55469 0.90625-1.2031 1.6953-1.9531 2.3594-1.1992 1.2188-2.7344 1.8984-4.6094 2.0469-1.168 0.10156-2.1719-0.054687-3.0156-0.46875-3.3359-1.1016-4.8047-4.1797-4.4219-9.2344 0.34375-4.1328 1.4766-7.7109 3.4062-10.734zm2.4375 14.766v0.17188l0.078125 0.29688c0.19531 0.55469 0.44531 0.96875 0.75 1.25 0.3125 0.27344 0.55078 0.43359 0.71875 0.48438 0.16406-0.17578 0.33203-0.34375 0.5-0.5 0.17578-0.16406 0.32031-0.35156 0.4375-0.5625 1.0508-1.7266 1.75-3.9062 2.0938-6.5312 0.35156-2.625 0.28125-5.0078-0.21875-7.1562-0.58594 1.043-1.1875 2.2266-1.8125 3.5469-0.625 1.3242-1.1172 2.4453-1.4688 3.3594-0.78125 2.1484-1.1406 4.0273-1.0781 5.6406z"/></g><g transform="translate(263.09 204.92)"><path d="m0.375-11.094c0.1875-1.2891 0.34766-2.2969 0.48438-3.0156 0.14453-0.71875 0.28906-1.3633 0.4375-1.9375 0.14453-0.57031 0.32812-1.125 0.54688-1.6562 0.21875-0.53906 0.46875-1.0469 0.75-1.5156s0.59766-0.84766 0.95312-1.1406c0.36328-0.28906 0.75781-0.46875 1.1875-0.53125 0.42578-0.0625 0.89062 0.04297 1.3906 0.3125 1.0195 1.7617 1.6562 2.9375 1.9062 3.5312 0.35156 0.89844 0.74219 2.1797 1.1719 3.8438 0.11328-0.4375 0.24219-0.90625 0.39062-1.4062 0.14453-0.50781 0.28125-1.0234 0.40625-1.5469 0.41406-1.3125 0.64844-2.2891 0.70312-2.9375 0.22656-1.3516 0.9375-2.4531 2.125-3.2969 1.0312-0.71875 2.0469-1.0391 3.0469-0.96875 0.40625 0.02344 0.70312 0.14062 0.89062 0.35938s0.22266 0.47656 0.10938 0.76562c-0.11719 0.28125-0.13672 0.53906-0.0625 0.76562 0.08203 0.23047 0.16406 0.49219 0.25 0.78125 0.17578 0.85547 0.13281 1.6367-0.125 2.3438-0.26172 0.71094-0.51172 1.5781-0.75 2.6094-0.24219 1.0312-0.46875 2.1211-0.6875 3.2656-0.21875 1.1484-0.44922 2.3203-0.6875 3.5156-0.23047 1.1875-0.46484 2.2773-0.70312 3.2656-0.53125 2.25-1.0391 3.5273-1.5156 3.8281-0.64844 0.53125-1.1328 0.85547-1.4531 0.96875-0.41797 0.13672-1.0234 0.22656-1.8125 0.26562-0.48047 0.03125-0.98438-0.53516-1.5156-1.7031-0.30469-0.625-0.61719-1.5-0.9375-2.625-0.58594-1.9688-0.94531-3.0469-1.0781-3.2344-0.41797 2.5234-0.73438 4.1211-0.95312 4.7969-0.21094 0.67969-0.38281 1.1328-0.51562 1.3594-0.125 0.23047-0.27734 0.52344-0.45312 0.875-0.13672 0.71094-0.64062 1.2852-1.5156 1.7344-0.74219 0.40625-1.4453 0.55078-2.1094 0.4375-0.70703-0.125-0.96875-0.52734-0.78125-1.2031-0.125-2.2578 0.17969-5.8945 0.90625-10.906z"/></g><g transform="translate(280.1 202.51)"><path d="m8.7031-8.5312c-0.30469 1.5312-0.62109 3.0078-0.95312 4.4219-0.33594 1.418-0.625 2.5-0.875 3.25-0.24219 0.74219-0.47656 1.2539-0.70312 1.5469-0.21875 0.30078-0.46094 0.51562-0.71875 0.64062-0.25 0.13281-0.51562 0.21094-0.79688 0.23438-0.27344 0.019531-0.54297 0.039062-0.8125 0.0625-1.5938-0.023438-2.2344-1.0781-1.9219-3.1719 0.15625-1.6562 0.28125-3.0078 0.375-4.0625 0.10156-1.0508 0.19141-1.9141 0.26562-2.5938 0.070312-0.67578 0.12891-1.2383 0.17188-1.6875 0.039063-0.45703 0.09375-0.91016 0.15625-1.3594 0.070313-0.44531 0.17188-0.95312 0.29688-1.5156 0.125-0.57031 0.27344-1.3281 0.45312-2.2656-0.6875 0.1875-1.3281 0.20312-1.9219 0.04687-0.86719-0.22656-1.3086-0.94141-1.3281-2.1406 0-0.55078 0.21875-1.0938 0.65625-1.625 0.22656-0.28125 0.5-0.58594 0.8125-0.92188 0.63281-0.67578 1.9844-1.4922 4.0469-2.4531 2.1445-0.97656 4.0234-1.5625 5.6406-1.75 0.40625-0.13281 0.84766-0.14453 1.3281-0.03125 0.48828 0.11719 0.89453 0.30469 1.2188 0.5625 0.32031 0.25 0.50781 0.55469 0.5625 0.90625 0.05078 0.34375-0.13672 0.6875-0.5625 1.0312-0.1875 0.1875-0.30859 0.46094-0.35938 0.8125-0.04297 0.35547-0.09375 0.73438-0.15625 1.1406-0.05469 0.39844-0.16797 0.77344-0.34375 1.125-0.16797 0.34375-0.47656 0.57422-0.92188 0.6875-0.23047 0.16797-0.5625 0.3125-1 0.4375-0.42969 0.11719-0.71094 0.19922-0.84375 0.25-0.13672 0.04297-0.20312 0.10156-0.20312 0.17188-0.19922 1.043-0.43359 2.2969-0.70312 3.7656-0.26172 1.4609-0.54688 2.9531-0.85938 4.4844zm-4.8125-6.8438c-0.042969 0.01172-0.0625 0.02344-0.0625 0.03125 0 0 0.019531-0.0039 0.0625-0.01563z"/></g><g transform="translate(293.54 200.62)"><path d="m4.9062-0.60938c-0.074219 0.76953-0.58984 1.3047-1.5469 1.6094-0.89844 0.30078-1.7773 0.32031-2.6406 0.0625-0.95703-0.26172-1.4297-0.75-1.4219-1.4688-0.25781-1.0703-0.023437-3.5 0.70312-7.2812 1.1016-5.6641 2.4141-9.7969 3.9375-12.391 0.39453-0.66406 0.75391-1.1094 1.0781-1.3281 0.32031-0.22656 0.69141-0.44531 1.1094-0.65625 0.42578-0.21875 0.86719-0.42578 1.3281-0.625 0.9375-0.39453 1.832-0.70312 2.6875-0.92188 0.85156-0.21875 1.6406-0.22266 2.3594-0.01563 0.72656 0.19922 1.3281 0.57422 1.7969 1.125 0.47656 0.54297 0.81641 1.2109 1.0156 2 0.20703 0.79297 0.29688 1.6406 0.26562 2.5469-0.02344 0.90625-0.16406 1.8398-0.42188 2.7969-0.26172 0.96094-0.63672 1.8711-1.125 2.7344-1.0625 1.8984-2.4336 3.2148-4.1094 3.9531l0.35938 0.45312c0.28906 0.34375 0.64062 0.71484 1.0469 1.1094 0.40625 0.38672 0.8125 0.78906 1.2188 1.2031 0.40625 0.41797 0.78125 0.83984 1.125 1.2656 0.35156 0.41797 0.62891 0.82812 0.82812 1.2344 0.40625 0.86719 0.25781 1.5547-0.4375 2.0625-0.55469 0.46094-1.0234 0.62109-1.4062 0.48438-0.16797-0.070312-0.33984-0.16406-0.51562-0.28125-0.16797-0.11328-0.38281-0.19531-0.64062-0.25-1.0547 0.46094-1.9336 0.29297-2.6406-0.5-0.41797-0.5-0.75781-0.96875-1.0156-1.4062-0.25-0.4375-0.46484-0.80469-0.64062-1.1094-0.4375-0.64453-0.90234-1.1875-1.3906-1.625-0.14844 0.53125-0.29297 1.2109-0.4375 2.0312-0.17969 1.0312-0.38281 2.1016-0.60938 3.2031zm3.3281-17.031c-0.24219 0.85547-0.40234 1.4453-0.48438 1.7656-0.16797 0.6875-0.35938 1.4297-0.57812 2.2188 0.00781 0.41797 0.00391 0.71484-0.015625 0.89062l0.32812-0.4375 0.45312-0.28125c0.3125-0.23828 0.59375-0.45312 0.84375-0.64062 0.25781-0.1875 0.48828-0.41016 0.6875-0.67188 0.35156-0.47656 0.625-1.2227 0.8125-2.2344-0.03125-0.1875-0.02734-0.37891 0.01563-0.57812 0.03906-0.19531 0.0625-0.39453 0.0625-0.59375 0.0078-0.41406-0.20312-0.67578-0.64062-0.78125-0.375 0.01172-0.79688 0.38281-1.2656 1.1094-0.09375 0.14844-0.16797 0.22656-0.21875 0.23438z"/></g><g transform="translate(309.21 198.4)"><path d="m3.0469-19.266c0.98828-1.5 2.1719-2.5195 3.5469-3.0625 0.95703-0.375 1.8945-0.47266 2.8125-0.29688 0.58203-0.8125 1.4375-1.1914 2.5625-1.1406 1.0312 0.05469 1.9727 0.5 2.8281 1.3438 0.03906 0.11719 0.14453 0.29688 0.3125 0.54688 0.16406 0.24219 0.32031 0.51562 0.46875 0.82812 1.0938 1.7812 1.5039 4.2617 1.2344 7.4375-0.3125 3.9375-1.3711 7.3984-3.1719 10.375-0.55469 0.90625-1.2031 1.6953-1.9531 2.3594-1.1992 1.2188-2.7344 1.8984-4.6094 2.0469-1.168 0.10156-2.1719-0.054687-3.0156-0.46875-3.3359-1.1016-4.8047-4.1797-4.4219-9.2344 0.34375-4.1328 1.4766-7.7109 3.4062-10.734zm2.4375 14.766v0.17188l0.078125 0.29688c0.19531 0.55469 0.44531 0.96875 0.75 1.25 0.3125 0.27344 0.55078 0.43359 0.71875 0.48438 0.16406-0.17578 0.33203-0.34375 0.5-0.5 0.17578-0.16406 0.32031-0.35156 0.4375-0.5625 1.0508-1.7266 1.75-3.9062 2.0938-6.5312 0.35156-2.625 0.28125-5.0078-0.21875-7.1562-0.58594 1.043-1.1875 2.2266-1.8125 3.5469-0.625 1.3242-1.1172 2.4453-1.4688 3.3594-0.78125 2.1484-1.1406 4.0273-1.0781 5.6406z"/></g><g transform="translate(326.47 195.96)"><path d="m9.875-0.03125c-0.375 0.16406-0.74219 0.27344-1.0938 0.32812-0.35547 0.0625-0.71484 0.12891-1.0781 0.20312-0.35547 0.070312-0.85156 0.14844-1.4844 0.23438-0.625 0.09375-1.5742 0.20703-2.8438 0.34375-0.30469 0.070313-0.60547 0.12891-0.90625 0.17188-0.29297 0.039062-0.57422 0.019531-0.84375-0.0625-0.61719-0.15625-1.0898-0.65625-1.4219-1.5-0.14844-0.39453-0.28906-0.66406-0.4375-0.8125-0.14453-0.15625-0.26562-0.30469-0.35938-0.45312-0.22656-0.25781-0.28125-0.75-0.15625-1.4688 0.11719-0.71875 0.26562-1.6016 0.45312-2.6562 0.1875-1.0625 0.42188-2.1914 0.70312-3.3906 0.61328-2.8516 1.207-5.1172 1.7812-6.7969 0.21875-0.76953 0.40625-1.4297 0.5625-1.9844 0.15625-0.55078 0.30078-1.0234 0.4375-1.4219 0.13281-0.40625 0.20312-0.61719 0.20312-0.64062 0.082031-0.72656 0.71094-1.4258 1.8906-2.0938 1.1445-0.66406 2.2266-0.94531 3.25-0.84375 1.1328 0.11719 1.7227 0.77344 1.7656 1.9688-0.11719 1.1875-0.35156 2.3984-0.70312 3.625-0.34375 1.2188-0.75 2.5078-1.2188 3.8594-0.46875 1.3555-0.98438 2.793-1.5469 4.3125-0.5625 1.5234-1.1016 3.168-1.6094 4.9375-0.023438 0.074219 0.019531 0.13281 0.125 0.17188 0.25-0.050781 0.57812-0.17578 0.98438-0.375 0.41406-0.19531 0.85156-0.375 1.3125-0.53125 0.46875-0.16406 0.9375-0.28125 1.4062-0.34375 0.46875-0.070312 0.875-0.00781 1.2188 0.1875 0.01953 0.33594 0.14062 0.58984 0.35938 0.76562 0.21875 0.16797 0.42969 0.32422 0.64062 0.46875 0.53906 0.42969 0.67578 1.0703 0.40625 1.9219-0.27344 0.82422-0.87109 1.4492-1.7969 1.875z"/></g></g><g fill="#1e1e1e"><g transform="translate(53.666 139.12)"><path d="m5.8438-4.4062-0.015625 0.25c0 0.042969 0.019531 0.085938 0.0625 0.125 0.050781 0.03125 0.10938 0.046875 0.17188 0.046875 0.0625-0.00781 0.10938-0.050781 0.14062-0.125 0.98828-1.6758 1.8008-3.1445 2.4375-4.4062 0.64453-1.2578 1.1133-2.1797 1.4062-2.7656 0.30078-0.59375 0.53516-1.0664 0.70312-1.4219 0.47656-0.91406 0.95703-1.7422 1.4375-2.4844-2.0625 0.76172-3.6953 1.2109-4.8906 1.3438-1.1992 0.125-2.0703 0.14062-2.6094 0.04687-0.53125-0.10156-0.89062-0.24219-1.0781-0.42188-0.17969-0.17578-0.27734-0.36328-0.29688-0.5625-0.023438-0.19531-0.039062-0.38281-0.046875-0.5625-0.011719-0.39453 0.19141-0.73828 0.60938-1.0312 0.41406-0.30078 0.76562-0.46875 1.0469-0.5 0.28906-0.03125 0.4375-0.0039 0.4375 0.07813 0.00781 0.08594-0.042969 0.20312-0.15625 0.35938-0.11719 0.15625-0.16797 0.26562-0.15625 0.32812 0.03125 0.25 0.94531 0.28125 2.75 0.09375 1.8125-0.19531 3.8672-0.66406 6.1719-1.4062 1.207-1.2383 2.3047-1.9102 3.2969-2.0156 0.63281-0.07031 1.082 0.05859 1.3438 0.39062 0.15625 0.21094 0.24219 0.42188 0.26562 0.64062 0.03125 0.21875-0.07031 0.45312-0.29688 0.70312-0.23047 0.25-0.54688 0.47656-0.95312 0.67188-0.76172 0.35547-1.6562 0.67188-2.6875 0.95312-0.38672 0.625-0.92188 1.5898-1.6094 2.8906-0.6875 1.293-1.1641 2.1641-1.4219 2.6094-0.25 0.44922-0.64844 1.25-1.1875 2.4062-0.54297 1.1562-1.0117 2.1562-1.4062 3-0.39844 0.83594-0.82812 1.668-1.2969 2.5-0.94922 1.6992-1.8594 2.5938-2.7344 2.6875-0.375 0.039062-0.70312-0.019531-0.98438-0.1875-0.28125-0.17578-0.44922-0.48438-0.5-0.92188-0.042969-0.4375 0.14062-1.0156 0.54688-1.7344 0.41406-0.71875 0.72656-1.1797 0.9375-1.3906 0.20703-0.21875 0.34766-0.32812 0.42188-0.32812 0.082031-0.00781 0.12891 0.039063 0.14062 0.14062z"/></g><g transform="translate(67.271 137.64)"><path d="m10.672-4.6719c0.09375 0.36719 0.14844 0.65234 0.17188 0.85938 0.01953 0.21094 0 0.39062-0.0625 0.54688-0.05469 0.15625-0.19531 0.38672-0.42188 0.6875-0.21875 0.30469-0.49219 0.61719-0.8125 0.9375-0.78125 0.78125-1.625 1.2266-2.5312 1.3281-1.2812 0.13672-1.9844-0.36719-2.1094-1.5156-0.10547-0.98828 0.53906-3.0547 1.9375-6.2031 0.050781-0.125 0.085938-0.20703 0.10938-0.25-0.55469 0.48047-1.5781 1.7578-3.0781 3.8281-1.5 2.0625-2.4844 3.5156-2.9531 4.3594-0.042969 0.074219-0.15625 0.16016-0.34375 0.26562-0.17969 0.10156-0.32031 0.16016-0.42188 0.17188-0.10547 0.007812-0.21875-0.011719-0.34375-0.0625-0.13281-0.042969-0.21875-0.0625-0.25-0.0625-0.09375 0.007812-0.14062-0.023438-0.14062-0.09375-0.007813-0.0625 0.089844-0.42969 0.29688-1.1094 0.19922-0.6875 0.47266-1.5391 0.82812-2.5625 0.94531-2.8008 2.4141-6.4844 4.4062-11.047 0.69531-1.5938 1.2539-2.7266 1.6719-3.4062 0.30078-0.47656 0.85938-0.75781 1.6719-0.84375 0.16406-0.01953 0.26562 0.02344 0.29688 0.125 0.039062 0.09375 0.066406 0.19922 0.078125 0.3125 0.00781 0.11719-0.00781 0.23047-0.046875 0.34375l-1.0312 2.125c-2.0625 4.1367-3.5859 7.5469-4.5625 10.234 1.0625-1.6133 2.1133-2.8906 3.1562-3.8281 0.66406-0.57031 1.1758-0.87891 1.5312-0.92188 0.35156-0.03906 0.67969-0.01953 0.98438 0.0625 0.30078 0.07422 0.47656 0.32422 0.53125 0.75 0.00781 0.15625-0.18359 0.77344-0.57812 1.8438-1.2109 3.168-1.7969 4.918-1.7656 5.25 0.039063 0.32422 0.20312 0.46875 0.48438 0.4375 0.39453-0.039063 0.96094-0.49219 1.7031-1.3594 0.57031-0.65625 0.92969-1.0703 1.0781-1.25 0.08203-0.082031 0.16016-0.12891 0.23438-0.14062 0.15625-0.019531 0.25 0.042969 0.28125 0.1875z"/></g><g transform="translate(76.705 136.62)"><path d="m7.8438-9.7344c0.050781 0.52344-0.10938 1.0078-0.48438 1.4531-0.375 0.4375-0.82812 0.68359-1.3594 0.73438-0.16797 0.023437-0.28125-0.003906-0.34375-0.078125-0.0625-0.082031-0.10547-0.19141-0.125-0.32812-0.011719-0.13281-0.007812-0.26562 0.015625-0.39062-0.27344 0.125-0.57422 0.30859-0.90625 0.54688-0.32422 0.23047-0.71484 0.5625-1.1719 1-0.44922 0.42969-0.66406 0.73438-0.64062 0.92188 0 0.0625 0.085937 0.085938 0.26562 0.0625 0.1875-0.019531 0.46094-0.11328 0.82812-0.28125 0.375-0.17578 0.64062-0.26953 0.79688-0.28125 0.15625-0.019531 0.25391-0.019531 0.29688 0 0.10156 0.042969 0.22266 0.14844 0.35938 0.3125 0.14453 0.16797 0.22266 0.30859 0.23438 0.42188 0.019531 0.10547-0.070313 0.25781-0.26562 0.45312-0.1875 0.19922-0.40625 0.35547-0.65625 0.46875-0.25 0.11719-0.41797 0.19922-0.5 0.25-1.543 1.1055-2.293 1.8281-2.25 2.1719 0.0625 0.60547 0.61328 0.85156 1.6562 0.73438 0.65625-0.070312 1.3008-0.35156 1.9375-0.84375 0.53125-0.41406 1.0039-0.83203 1.4219-1.25 0.41406-0.42578 0.67578-0.69141 0.78125-0.79688 0.11328-0.10156 0.20312-0.15625 0.26562-0.15625 0.20703-0.03125 0.33594 0.18359 0.39062 0.64062 0.050781 0.46094 0.054687 0.76562 0.015625 0.92188-0.042969 0.15625-0.18359 0.35156-0.42188 0.57812-1.5234 1.543-3.0273 2.3906-4.5156 2.5469-0.80469 0.09375-1.4531 0.054687-1.9531-0.10938-0.91797-0.30078-1.4219-0.85938-1.5156-1.6719-0.11328-1.0938 0.53906-1.9922 1.9688-2.7031-0.30469-0.10156-0.51172-0.25391-0.625-0.45312-0.11719-0.19531-0.19922-0.52344-0.25-0.98438-0.042969-0.45703 0.11719-0.96094 0.48438-1.5156 0.375-0.5625 0.85938-1.0391 1.4531-1.4375 1.2891-0.89453 2.4727-1.3984 3.5469-1.5156 0.25781-0.03125 0.53125 0 0.8125 0.09375s0.42969 0.25781 0.45312 0.48438z"/></g></g></g></g></svg>
