<svg height="800" width="800" xmlns="http://www.w3.org/2000/svg" viewBox="0 0 512 512" xml:space="preserve"><path style="fill:#ffd159" d="M334.769 320.703v78.77l78.769-22.506v-33.758z"/><path style="fill:#ffe08f" d="M368.527 320.703v78.77L98.462 376.967v-33.758z"/><path style="fill:#ffeab2" d="M413.538 67.516v275.693h-45.011l-56.263-137.846 56.263-137.847z"/><path style="fill:#ffd159" d="M354.462 388.22v78.769l78.769-22.505v-33.759z"/><path style="fill:#ffe08f" d="M388.22 388.22v78.769L78.769 444.484v-33.759z"/><path style="fill:#fff3d4" d="M323.517 67.516h-45.011L188.484 0H98.462v343.209h270.066v-56.264c-.001 12.434-45.011-219.429-45.011-219.429z"/><path style="fill:#ffe08f" d="M188.484 0v286.945c0 12.434-10.071 22.505-22.505 22.505s-22.505-10.071-22.505-22.505V0h45.01zM278.505 67.516v219.429c0 12.434-10.071 22.505-22.505 22.505s-22.505-10.071-22.505-22.505V33.758l45.01 33.758zM368.527 67.516v219.429c0 12.434-10.071 22.505-22.505 22.505s-22.505-10.071-22.505-22.505V67.516h45.01zM433.231 444.484h-33.758V512h33.758c18.646 0 33.758-15.112 33.758-33.758s-15.112-33.758-33.758-33.758z"/><path style="fill:#fff3d4" d="M399.473 444.484H78.769c-18.646 0-33.758 15.112-33.758 33.758S60.123 512 78.769 512h320.703c18.646 0 33.758-15.112 33.758-33.758s-15.112-33.758-33.757-33.758z"/><path style="fill:#ffe08f" d="M433.231 376.967h-33.758v33.758h33.758c9.317 0 16.879-7.562 16.879-16.879s-7.562-16.879-16.879-16.879z"/><path style="fill:#fff3d4" d="M399.473 376.967H78.769c-9.317 0-16.879 7.562-16.879 16.879s7.562 16.879 16.879 16.879h320.703c9.317 0 16.879-7.562 16.879-16.879.001-9.317-7.561-16.879-16.878-16.879z"/><path style="fill:#ffd159" d="M416.352 351.648H95.648c-4.662 0-8.44-3.779-8.44-8.44s3.778-8.44 8.44-8.44h320.703c4.662 0 8.44 3.779 8.44 8.44s-3.777 8.44-8.439 8.44z"/></svg>